<svg class="animated" id="freepik_stories-cat-and-dog" xmlns="http://www.w3.org/2000/svg" viewBox="0 0 500 500" version="1.1" xmlns:xlink="http://www.w3.org/1999/xlink" xmlns:svgjs="http://svgjs.com/svgjs"><style>svg#freepik_stories-cat-and-dog:not(.animated) .animable {opacity: 0;}svg#freepik_stories-cat-and-dog.animated #freepik--speech-bubble--inject-46 {animation: 1.5s Infinite  linear floating;animation-delay: 0s;}            @keyframes floating {                0% {                    opacity: 1;                    transform: translateY(0px);                }                50% {                    transform: translateY(-10px);                }                100% {                    opacity: 1;                    transform: translateY(0px);                }            }        </style><g id="freepik--background-complete--inject-46" class="animable" style="transform-origin: 250px 228.23px;"><rect y="382.4" width="500" height="0.25" style="fill: rgb(235, 235, 235); transform-origin: 250px 382.525px;" id="elkj5450ze22" class="animable"></rect><rect x="416.78" y="398.49" width="33.12" height="0.25" style="fill: rgb(235, 235, 235); transform-origin: 433.34px 398.615px;" id="elmyhtc5nfj6" class="animable"></rect><rect x="322.53" y="401.21" width="8.69" height="0.25" style="fill: rgb(235, 235, 235); transform-origin: 326.875px 401.335px;" id="eljw48pszttni" class="animable"></rect><rect x="396.59" y="389.21" width="19.19" height="0.25" style="fill: rgb(235, 235, 235); transform-origin: 406.185px 389.335px;" id="elxubgtoscgz" class="animable"></rect><rect x="52.46" y="390.89" width="43.19" height="0.25" style="fill: rgb(235, 235, 235); transform-origin: 74.055px 391.015px;" id="el0179966z4xoio" class="animable"></rect><rect x="104.56" y="390.89" width="6.33" height="0.25" style="fill: rgb(235, 235, 235); transform-origin: 107.725px 391.015px;" id="ellqdiwj3znon" class="animable"></rect><rect x="131.47" y="395.11" width="93.68" height="0.25" style="fill: rgb(235, 235, 235); transform-origin: 178.31px 395.235px;" id="el3gj2p4e7mg8" class="animable"></rect><path d="M237,337.8H43.91a5.71,5.71,0,0,1-5.7-5.71V60.66A5.71,5.71,0,0,1,43.91,55H237a5.71,5.71,0,0,1,5.71,5.71V332.09A5.71,5.71,0,0,1,237,337.8ZM43.91,55.2a5.46,5.46,0,0,0-5.45,5.46V332.09a5.46,5.46,0,0,0,5.45,5.46H237a5.47,5.47,0,0,0,5.46-5.46V60.66A5.47,5.47,0,0,0,237,55.2Z" style="fill: rgb(235, 235, 235); transform-origin: 140.46px 196.4px;" id="ela29qgebt507" class="animable"></path><path d="M453.31,337.8H260.21a5.72,5.72,0,0,1-5.71-5.71V60.66A5.72,5.72,0,0,1,260.21,55h193.1A5.71,5.71,0,0,1,459,60.66V332.09A5.71,5.71,0,0,1,453.31,337.8ZM260.21,55.2a5.47,5.47,0,0,0-5.46,5.46V332.09a5.47,5.47,0,0,0,5.46,5.46h193.1a5.47,5.47,0,0,0,5.46-5.46V60.66a5.47,5.47,0,0,0-5.46-5.46Z" style="fill: rgb(235, 235, 235); transform-origin: 356.75px 196.4px;" id="elbjimzfkx0y" class="animable"></path><polygon points="412.88 136.23 369.81 111.17 336.62 111.17 292.82 135.04 292.82 297.46 412.88 297.46 412.88 136.23" style="fill: rgb(224, 224, 224); transform-origin: 352.85px 204.315px;" id="elgi2n8zlzikm" class="animable"></polygon><path d="M291.59,136.23l1.23-1.19a85.35,85.35,0,0,1,59.42-23.87h0A85.34,85.34,0,0,1,411.65,135l1.23,1.19V297.46H291.59Zm113.25,3.45a77.86,77.86,0,0,0-105.21,0V289.42H404.84Z" style="fill: rgb(250, 250, 250); transform-origin: 352.235px 204.315px;" id="elpftdl886hqs" class="animable"></path><polygon points="355.25 290.39 349.22 290.39 349.22 236.48 298.11 236.48 298.11 230.45 349.22 230.45 349.22 175.32 298.11 175.32 298.11 169.28 349.22 169.28 349.22 118.17 355.25 118.17 355.25 169.28 406.36 169.28 406.36 175.32 355.25 175.32 355.25 230.45 406.36 230.45 406.36 236.48 355.25 236.48 355.25 290.39" style="fill: rgb(240, 240, 240); transform-origin: 352.235px 204.28px;" id="el68k9mw6zyo" class="animable"></polygon><path d="M287.56,134.59l1.18-1.18a89.9,89.9,0,0,1,127,0l1.18,1.18v166.9H287.56Zm121.3,3.35a81.85,81.85,0,0,0-113.25,0v155.5H408.86Z" style="fill: rgb(240, 240, 240); transform-origin: 352.24px 204.319px;" id="elge3rk22s0fd" class="animable"></path><rect x="165.76" y="181.5" width="3.7" height="58.67" style="fill: rgb(224, 224, 224); transform-origin: 167.61px 210.835px;" id="elat9gm1isr9d" class="animable"></rect><ellipse cx="167.61" cy="253.33" rx="36.5" ry="26.56" style="fill: rgb(224, 224, 224); transform-origin: 167.61px 253.33px;" id="el5lijduuy40o" class="animable"></ellipse><polygon points="87.41 275.93 87.41 381.37 100.09 381.37 100.09 303.15 235.14 303.15 235.14 381.37 247.82 381.37 247.82 275.93 87.41 275.93" style="fill: rgb(224, 224, 224); transform-origin: 167.615px 328.65px;" id="el26ky56p4nti" class="animable"></polygon><rect x="83.09" y="269.62" width="169.04" height="23.04" style="fill: rgb(240, 240, 240); transform-origin: 167.61px 281.14px;" id="elm90bllonzdg" class="animable"></rect><rect x="142.29" y="224.96" width="50.63" height="9.51" style="fill: rgb(224, 224, 224); transform-origin: 167.605px 229.715px;" id="elq8i5fx9s38" class="animable"></rect><polygon points="216.89 216.17 118.33 216.17 137.9 145.45 197.32 145.45 216.89 216.17" style="fill: rgb(240, 240, 240); transform-origin: 167.61px 180.81px;" id="elbufqtnbwoi6" class="animable"></polygon></g><g id="freepik--Shadow--inject-46" class="animable animator-active" style="transform-origin: 250px 416.24px;"><ellipse id="freepik--path--inject-46" cx="250" cy="416.24" rx="193.89" ry="11.32" style="fill: rgb(245, 245, 245); transform-origin: 250px 416.24px;" class="animable"></ellipse></g><g id="freepik--Plant--inject-46" class="animable" style="transform-origin: 373.632px 310.706px;"><path d="M370.13,370.25a.83.83,0,0,1-.47-.14c-9.3-6.35-20-31.84-20.4-32.93a.82.82,0,0,1,.45-1.08.83.83,0,0,1,1.09.45c.1.25,10.44,25,19.21,31.75,2.32-2.5,12.21-12.16,29.95-16a.83.83,0,1,1,.35,1.63c-19.43,4.17-29.44,15.88-29.54,16A.84.84,0,0,1,370.13,370.25Z" style="fill: rgb(38, 50, 56); transform-origin: 375.082px 353.143px;" id="elhsodep9drar" class="animable"></path><path d="M373.83,348.93s-2.39-17.57-13.63-19.49-7.85-10.42-10.78-13.71-10.58,6.41-4,15.81,1.19,6.45,4,15.19S374.86,363.5,373.83,348.93Z" style="fill: rgb(61, 165, 218); transform-origin: 358.343px 336.021px;" id="el0edq1wode9rk" class="animable"></path><g id="elur6u537mjqr"><path d="M373.83,348.93s-2.39-17.57-13.63-19.49-7.85-10.42-10.78-13.71-10.58,6.41-4,15.81,1.19,6.45,4,15.19S374.86,363.5,373.83,348.93Z" style="fill: rgb(255, 255, 255); isolation: isolate; opacity: 0.2; transform-origin: 358.343px 336.021px;" class="animable"></path></g><path d="M371.45,361.34a.62.62,0,0,1-.62-.5,155,155,0,0,0-4.4-15.4c-3.61-11.13-7.34-22.65-4.79-35,2.09-10.14,7.2-19.47,12.15-28.49q1.24-2.27,2.46-4.52c.66-1.23,1.33-2.46,2-3.69,4.54-8.4,9.24-17.09,12.55-26.16,4.14-11.32,4.72-21,1.77-29.7a.64.64,0,0,1,1.21-.41c3,8.95,2.46,18.94-1.78,30.55-3.35,9.16-8.07,17.88-12.64,26.32l-2,3.69c-.81,1.51-1.64,3-2.47,4.53-4.9,8.94-10,18.18-12,28.13-2.48,12,1,22.86,4.76,34.34a154.48,154.48,0,0,1,4.43,15.53.64.64,0,0,1-.49.75Z" style="fill: rgb(38, 50, 56); transform-origin: 378.237px 289.206px;" id="el52rhqxkuic7" class="animable"></path><path d="M396,226.92s7.66-21.31-8.41-22.2S388.7,224.43,396,226.92Z" style="fill: rgb(61, 165, 218); transform-origin: 389.382px 215.806px;" id="elpe1zrb5656s" class="animable"></path><path d="M381.58,243.07s-4.26-19.68-15.8-15.87S370.19,243.13,381.58,243.07Z" style="fill: rgb(61, 165, 218); transform-origin: 371.679px 234.89px;" id="eled3efzy9hai" class="animable"></path><path d="M400.91,245.29s-1.3-15.65,10.83-15.63S418.1,243.24,400.91,245.29Z" style="fill: rgb(61, 165, 218); transform-origin: 409.527px 237.475px;" id="elkjp5w0vo21" class="animable"></path><path d="M392,276.91s16.66-14.06,22.22-3.11S401.58,286.5,392,276.91Z" style="fill: rgb(61, 165, 218); transform-origin: 403.628px 276.396px;" id="elmh1zawoo6ds" class="animable"></path><path d="M363.28,273.55s-2.41-24.16-15.75-17S351.76,275.65,363.28,273.55Z" style="fill: rgb(61, 165, 218); transform-origin: 353.011px 264.509px;" id="elai49ynu3lst" class="animable"></path><path d="M350.78,307.72s10.36-24.07-7.74-21.82S338.22,301.47,350.78,307.72Z" style="fill: rgb(61, 165, 218); transform-origin: 343.961px 296.736px;" id="eltmhab6bz7ck" class="animable"></path><path d="M378.2,317.15s15.71-17.52,27.18-11.52S406.87,329.21,378.2,317.15Z" style="fill: rgb(61, 165, 218); transform-origin: 394.117px 312.831px;" id="el8qmf811zzmu" class="animable"></path><g id="eloxn66n370cj"><g style="isolation: isolate; opacity: 0.2; transform-origin: 376.187px 262.987px;" class="animable"><path d="M396,226.92s7.66-21.31-8.41-22.2S388.7,224.43,396,226.92Z" style="fill: rgb(255, 255, 255); transform-origin: 389.382px 215.806px;" id="el0c3m74bawl79" class="animable"></path><path d="M381.58,243.07s-4.26-19.68-15.8-15.87S370.19,243.13,381.58,243.07Z" style="fill: rgb(255, 255, 255); transform-origin: 371.679px 234.89px;" id="elhtai5ktwqie" class="animable"></path><path d="M400.91,245.29s-1.3-15.65,10.83-15.63S418.1,243.24,400.91,245.29Z" style="fill: rgb(255, 255, 255); transform-origin: 409.527px 237.475px;" id="el780dxdq6tfl" class="animable"></path><path d="M392,276.91s16.66-14.06,22.22-3.11S401.58,286.5,392,276.91Z" style="fill: rgb(255, 255, 255); transform-origin: 403.628px 276.396px;" id="eleym2jbvdfdp" class="animable"></path><path d="M363.28,273.55s-2.41-24.16-15.75-17S351.76,275.65,363.28,273.55Z" style="fill: rgb(255, 255, 255); transform-origin: 353.011px 264.509px;" id="elr9nitvre6n" class="animable"></path><path d="M350.78,307.72s10.36-24.07-7.74-21.82S338.22,301.47,350.78,307.72Z" style="fill: rgb(255, 255, 255); transform-origin: 343.961px 296.736px;" id="elvp24krrzo5r" class="animable"></path><path d="M378.2,317.15s15.71-17.52,27.18-11.52S406.87,329.21,378.2,317.15Z" style="fill: rgb(255, 255, 255); transform-origin: 394.117px 312.831px;" id="elbdrt2as342" class="animable"></path></g></g><path d="M388.27,256.06a.64.64,0,0,1-.2,0,.64.64,0,0,1-.38-.32c-.05-.12-5.91-12.13-10.51-15.06a.64.64,0,0,1,.68-1.08c4.34,2.77,9.41,12.46,10.68,15,9.09-5,15.95-14.55,16-14.64a.64.64,0,0,1,1,.74c-.3.41-7.4,10.27-17,15.33A.59.59,0,0,1,388.27,256.06Z" style="fill: rgb(38, 50, 56); transform-origin: 391.256px 247.797px;" id="el9oo7nmhbo1" class="animable"></path><path d="M372.7,285.55l-.14,0a.64.64,0,0,1-.41-.31c-.07-.13-7.42-13.25-17.15-19.34a.63.63,0,0,1-.2-.88.62.62,0,0,1,.87-.2c8.91,5.57,15.65,16.47,17.24,19.19,14.14-9.74,31.46-8.83,31.64-8.82a.64.64,0,0,1,.6.67.67.67,0,0,1-.68.6c-.17,0-17.53-.91-31.4,9A.59.59,0,0,1,372.7,285.55Z" style="fill: rgb(38, 50, 56); transform-origin: 379.925px 275.136px;" id="el31q2l6af9wr" class="animable"></path><path d="M362.24,324.78a.63.63,0,0,1-.41-.15c-9.46-8-16.36-27.54-16.64-28.37a.63.63,0,0,1,.39-.81.62.62,0,0,1,.8.39c.07.2,6.91,19.56,15.94,27.54,2.95-1.57,21-10.81,34.7-10.81h.23a.64.64,0,0,1,.63.64.64.64,0,0,1-.64.63H397c-14.34,0-34.28,10.75-34.48,10.86A.64.64,0,0,1,362.24,324.78Z" style="fill: rgb(38, 50, 56); transform-origin: 371.516px 310.097px;" id="el2qabx4yyqp6" class="animable"></path><path d="M367.6,352.1s-5.9-11.74,5.18-16.07,12.63.41,19.56-2.83,13-12.39,13.32-6-7.52,9-5.23,12.19S380.35,358.6,367.6,352.1Z" style="fill: rgb(61, 165, 218); transform-origin: 385.85px 339.312px;" id="el5fcuzfvilme" class="animable"></path><path d="M367.71,346.24s-8.24-8.32-15.41-8.17-11.9-7.1-13.37-1.78S348,355.83,367.71,346.24Z" style="fill: rgb(61, 165, 218); transform-origin: 353.252px 341.91px;" id="ellnjyfipbmgr" class="animable"></path><polygon points="329.08 344.84 331.85 368.69 332.21 371.85 333.36 381.85 334.19 388.92 334.73 393.52 337.41 416.72 406.49 416.72 409.18 393.52 409.71 388.92 410.54 381.85 411.69 371.85 412.06 368.69 414.83 344.84 329.08 344.84" style="fill: rgb(38, 50, 56); transform-origin: 371.955px 380.78px;" id="el8si3jj4rprt" class="animable"></polygon><g id="el6uelp2ye792"><polygon points="333.36 381.85 334.19 388.92 409.71 388.92 410.54 381.85 333.36 381.85" style="opacity: 0.4; transform-origin: 371.95px 385.385px;" class="animable"></polygon></g><g id="els3z9lhqbpea"><polygon points="334.73 393.52 337.41 416.72 406.49 416.72 409.18 393.52 334.73 393.52" style="opacity: 0.4; transform-origin: 371.955px 405.12px;" class="animable"></polygon></g><g id="eljwwp0r95ck"><polygon points="331.85 368.69 332.21 371.85 411.69 371.85 412.06 368.69 331.85 368.69" style="opacity: 0.4; transform-origin: 371.955px 370.27px;" class="animable"></polygon></g></g><g id="freepik--speech-bubble--inject-46" class="animable" style="transform-origin: 222.38px 211.005px;"><path d="M241.45,172.49h-38.1a13.1,13.1,0,0,0-13.1,13.1v37a13.11,13.11,0,0,0,13.1,13.1h15.18l4,13.83,4.77-13.83h14.11a13.1,13.1,0,0,0,13.1-13.1v-37A13.09,13.09,0,0,0,241.45,172.49Z" style="fill: rgb(61, 165, 218); transform-origin: 222.38px 211.005px;" id="eldbdebta49b4" class="animable"></path><g id="elj4leeqffnoi"><path d="M241.45,172.49h-38.1a13.1,13.1,0,0,0-13.1,13.1v37a13.11,13.11,0,0,0,13.1,13.1h15.18l4,13.83,4.77-13.83h14.11a13.1,13.1,0,0,0,13.1-13.1v-37A13.09,13.09,0,0,0,241.45,172.49Z" style="fill: rgb(255, 255, 255); opacity: 0.7; transform-origin: 222.38px 211.005px;" class="animable"></path></g><path d="M209.17,196.68c3.3-5.53,9.79-3.5,13.18.72,3.28-4.31,9.7-6.5,13.15-1.06,5.82,9.18-5.81,17.9-11.31,21.33-.62.39-1.14.72-1.57,1-.44-.24-1-.55-1.59-.93C215.44,214.43,203.59,206,209.17,196.68Z" style="fill: rgb(61, 165, 218); transform-origin: 222.401px 205.893px;" id="elfawtffnmqmt" class="animable"></path></g><g id="freepik--Dog--inject-46" class="animable" style="transform-origin: 246.245px 331.103px;"><path d="M375.25,416.72H95a12.31,12.31,0,0,1-1.88-5.31c0-.19,0-.39-.05-.58s0-.39,0-.58,0-.39,0-.59a10,10,0,0,1,.11-1.24c0-.16,0-.32.09-.47s.08-.37.12-.54a5.5,5.5,0,0,1,.16-.58,8.22,8.22,0,0,1,.4-1.08c.07-.17.15-.35.23-.52l.27-.51h0l.3-.49a10.17,10.17,0,0,1,.68-.94c.12-.16.25-.3.38-.45l.32-.35.71-.65a9.37,9.37,0,0,1,.78-.59,6.2,6.2,0,0,1,.69-.44l.06,0,.66-.36.25-.11a7.64,7.64,0,0,1,.83-.35c.25-.1.52-.2.79-.28,7.73-2.38,28.94-.46,31.36-.46a1.14,1.14,0,0,0,.42-.09c1.51-.6,3.79-4.1,5.39-6.86l.26-.45c.92-1.6,1.57-2.87,1.64-3h-2.36s0,0,0,0a35.24,35.24,0,0,0,1.75-3.69c.28-.67.54-1.35.77-2,.1-.27.19-.53.28-.8.31-.94.58-1.86.82-2.72.12-.43.23-.86.33-1.27s.19-.8.27-1.19.15-.65.21-1,.09-.47.12-.68c.1-.47.17-.89.23-1.26,0-.17.05-.33.07-.48l.06-.38c0-.12,0-.22,0-.32s0-.19,0-.27c0-.27,0-.42,0-.42h-1.77c-.06-.51-.1-1-.13-1.54l0-.7c0-.19,0-.39,0-.58,0-.57,0-1.15,0-1.73,0-.38,0-.76,0-1.15s0-.66.06-1,0-.36,0-.55h0c.07-.94.16-1.87.28-2.79,0-.31.08-.62.12-.93s.08-.6.13-.91c.09-.6.19-1.2.29-1.79s.21-1.17.32-1.74c.17-.86.35-1.69.53-2.49.07-.26.12-.52.19-.78q.18-.78.36-1.5a.27.27,0,0,0,0-.12c.11-.44.23-.87.34-1.27v0c.12-.44.24-.85.35-1.24.39-1.4.74-2.52,1-3.25,0-.11.06-.2.09-.29s.11-.3.14-.41.07-.19.08-.23,0,0,0,0v0h-1.92l7.71-31.91s28.36-9.19,41-8.48c.47,0,.91.06,1.33.12.21,0,.42.06.61.09a9.22,9.22,0,0,1,1,.22,5.54,5.54,0,0,1,1.21.44,4.18,4.18,0,0,1,.63.37,2.17,2.17,0,0,1,.32.27,2.37,2.37,0,0,1,.27.28,2.26,2.26,0,0,1,.39.67,1.71,1.71,0,0,1,.13.38,20.22,20.22,0,0,0,.85,2.71l.25.61c.17.45.38.91.6,1.39.12.28.26.56.4.86.39.81.82,1.64,1.28,2.49A127.08,127.08,0,0,0,208.06,327c.85,1.24,1.65,2.38,2.36,3.37l.53.73.83,1.14.68.91h0l.26.35.12.16.33.43.17.22a.05.05,0,0,1,0,0l-3.84,0c6.4,4.86,26.66,13.64,26.66,13.64l-1.88,1.39c18.76,7.23,86.5,4.52,87.4,4.49l-1,.41L318,355.3h0c.66.09,1.32.18,2,.29a45.81,45.81,0,0,1,8.33,2.21l1.69.65c.83.34,1.65.69,2.44,1.06a59.44,59.44,0,0,1,15.17,10H342.7c3.74,2,11,12.31,17.78,22.81,3,4.73,5.95,9.48,8.37,13.52C372.64,412.15,375.25,416.72,375.25,416.72Z" style="fill: rgb(61, 165, 218); transform-origin: 234.149px 360.835px;" id="elt8zjtcuep4i" class="animable"></path><g id="el9rxit363cyp"><path d="M375.25,416.72H95a12.31,12.31,0,0,1-1.88-5.31c0-.19,0-.39-.05-.58s0-.39,0-.58,0-.39,0-.59a10,10,0,0,1,.11-1.24c0-.16,0-.32.09-.47s.08-.37.12-.54a5.5,5.5,0,0,1,.16-.58,8.22,8.22,0,0,1,.4-1.08c.07-.17.15-.35.23-.52l.27-.51h0l.3-.49a10.17,10.17,0,0,1,.68-.94c.12-.16.25-.3.38-.45l.32-.35.71-.65a9.37,9.37,0,0,1,.78-.59,6.2,6.2,0,0,1,.69-.44l.06,0,.66-.36.25-.11a7.64,7.64,0,0,1,.83-.35c.25-.1.52-.2.79-.28,7.73-2.38,28.94-.46,31.36-.46a1.14,1.14,0,0,0,.42-.09c1.51-.6,3.79-4.1,5.39-6.86l.26-.45c.92-1.6,1.57-2.87,1.64-3H137.6a39.9,39.9,0,0,0,1.76-3.69c.19-.46.37-.93.54-1.39.09-.21.16-.41.23-.62s.19-.53.28-.8c.31-.94.58-1.86.82-2.72.12-.43.23-.86.33-1.27s.19-.8.27-1.19.15-.65.21-1,.09-.47.12-.68c.1-.47.17-.89.23-1.26,0-.17.05-.33.07-.48l.06-.38c0-.12,0-.22,0-.32s0-.19,0-.27c0-.27,0-.42,0-.42h-1.77c-.06-.51-.1-1-.13-1.54l0-.7c0-.19,0-.39,0-.58,0-.57,0-1.15,0-1.73,0-.38,0-.76,0-1.15s0-.66.06-1,0-.36,0-.55h0c.07-.94.16-1.87.28-2.79,0-.31.08-.62.12-.93s.08-.6.13-.91c.09-.6.19-1.2.29-1.79s.21-1.17.32-1.74c.17-.86.35-1.69.53-2.49.07-.26.12-.52.19-.78q.18-.78.36-1.5a.27.27,0,0,0,0-.12c.11-.44.23-.87.34-1.27v0c.12-.44.24-.85.35-1.24.4-1.4.75-2.52,1-3.25,0-.11.06-.2.09-.29s.11-.3.14-.41.07-.19.08-.23,0,0,0,0v0h-1.93l7.71-31.91s28.36-9.19,41-8.48c.47,0,.91.06,1.33.12.21,0,.42.06.61.09a9.22,9.22,0,0,1,1,.22,5.54,5.54,0,0,1,1.21.44,4.18,4.18,0,0,1,.63.37,2.17,2.17,0,0,1,.32.27,2.37,2.37,0,0,1,.27.28,2.26,2.26,0,0,1,.39.67,2,2,0,0,1,.12.37,19.09,19.09,0,0,0,.86,2.72,6,6,0,0,0,.25.61c.17.45.38.91.6,1.39.12.28.26.56.4.86.39.81.82,1.64,1.28,2.49A127.08,127.08,0,0,0,208.06,327c.85,1.24,1.65,2.38,2.36,3.37l.53.73.83,1.14.68.91h0l.26.35.12.16c.13.17.25.31.33.43l.17.22a.05.05,0,0,1,0,0l-3.84,0c6.4,4.86,26.66,13.64,26.66,13.64l-1.88,1.39c18.76,7.23,86.5,4.52,87.4,4.49l-1,.41L318,355.3h0c.66.08,1.32.17,2,.29a45.81,45.81,0,0,1,8.33,2.21l1.69.65c.83.34,1.65.69,2.44,1.06a59.44,59.44,0,0,1,15.17,10H342.7c3.74,2,11,12.31,17.78,22.81,3,4.73,5.95,9.48,8.37,13.52C372.64,412.15,375.25,416.72,375.25,416.72Z" style="fill: rgb(255, 255, 255); opacity: 0.3; transform-origin: 234.149px 360.83px;" class="animable"></path></g><g id="elr6e7ltl7a9c"><path d="M192.4,323.38v11.37h-2.75s-3.46,15.74-2.27,21.11c0,0-1.5-.67-2.58-4.59,0,0-6.73,16.89-12,21.42l-.33-3s-7.71,23,10.89,47.05h-9.1c-4.85-3.83-10.28-10.35-15.05-21.4-12.23-28.36-9.32-39.46-9.32-39.46l-2.73,1.45,4-16.12h-2.89s.23-16.24,8.57-20.58S192.4,323.38,192.4,323.38Z" style="fill: rgb(255, 255, 255); opacity: 0.6; transform-origin: 169.78px 367.982px;" class="animable"></path></g><g id="el9rkv9jvl8jg"><path d="M208.06,330.79a14.72,14.72,0,0,1-3,3.4l-1.17-1.46c-.61,4.22-4.82,10.5-4.82,10.5l-1.28-1.35-.84,2.69c-9.09.27-28-6.46-28-6.46l.18,2.16a34.78,34.78,0,0,1-19-24s33.68-.8,51-.39C203.16,320.94,205.78,326.34,208.06,330.79Z" style="opacity: 0.1; transform-origin: 179.095px 330.171px;" class="animable"></path></g><g id="elkua9bpod71q"><path d="M234.1,416.72H95c-4-6.18-1.84-14.69,5.9-17.06s28.94-.46,31.36-.46S140,388.81,140,388.81H137.6a48,48,0,0,0,5-16.45h-1.77a40.62,40.62,0,0,1-.06-7.24c.52,2.39,1,4,1,4l.86-2.85c-.13,4.38,3.17,13.6,3.17,13.6l1.16-3.51c2.14,13.82,12.16,19,12.16,19l.21-2.51c3.84,2.86,12.17,4.29,12.17,4.29-.2-6,2.88-13.07,2.88-13.07h-1.85C176.47,372.62,184,368,184,368s43.75,7.21,49.28,22.79C236.83,400.68,235.52,410.74,234.1,416.72Z" style="opacity: 0.1; transform-origin: 164.295px 390.92px;" class="animable"></path></g><g id="eld9gwucfs9er"><path d="M308.05,381.75s-13.6-.74-21.91,0-22.23,9.09-21.91,16.11,16.95,11.85,16.95,11.85-20.15-4.53-26.07-4.13-7.7,11.14-7.7,11.14H241.1s-2.43-12,2.43-16.11,15.91,0,15.91,0-1.83-15,9.37-21.85l-.13,3s7.06-6.28,22.11-6.06c0,0-3.28,2.42-2.64,2.2S294.06,376.62,308.05,381.75Z" style="opacity: 0.1; transform-origin: 274.271px 396.207px;" class="animable"></path></g><g id="elezvo2znfz24"><path d="M368.85,405.84c-.67,4.08-3.52,7.88-7.63,10.88h-40.9c-10.9-7.65-11.3-16.29-11.3-16.29l3.31,1.49c-2.39-8.39-.64-20.17-.64-20.17,5.36,5.59,27.73,10.48,28.42,10.63-.63-.46-16.28-11.89-4.7-5.28a33.87,33.87,0,0,0,3.18,1.61c8.69,3.79,18.14,3.79,21.89,3.61C363.5,397.05,366.43,401.8,368.85,405.84Z" style="opacity: 0.1; transform-origin: 338.935px 399.235px;" class="animable"></path></g><path d="M173.19,273.21S181,251.45,194,245.47c2.22-1,8.38,29.67-1.89,43C191.35,289.51,173.19,273.21,173.19,273.21Z" style="fill: rgb(61, 165, 218); transform-origin: 185.527px 266.982px;" id="el6g1mlubbp2d" class="animable"></path><g id="el2mzzj3oeb7g"><path d="M197.67,271.29a45.22,45.22,0,0,1-1.26,7.79,26,26,0,0,1-4.29,9.43c-.76,1-18.94-15.3-18.94-15.3S181,251.45,194,245.48C195.48,244.79,198.75,258.31,197.67,271.29Z" style="fill: rgb(255, 255, 255); opacity: 0.3; transform-origin: 185.532px 267.004px;" class="animable"></path></g><g id="eli2oyhijz3m"><path d="M193.82,248s-9.22,17.62-1.84,27.19C199.23,284.62,198.66,254.68,193.82,248Z" style="fill: rgb(255, 255, 255); opacity: 0.6; transform-origin: 193.282px 262.505px;" class="animable"></path></g><g id="elunpikubt4d9"><path d="M197.67,271.29a45.22,45.22,0,0,1-1.26,7.79c-4.55-1.1-10.35-3.95-15.95-9.42C180.46,269.66,187.65,266.87,197.67,271.29Z" style="opacity: 0.1; transform-origin: 189.065px 273.936px;" class="animable"></path></g><path d="M223.18,299.18c-1.55-3.08-13.3-5-13.3-5s-.21-7.06-3.27-11.52-16.2-12.48-24.07-12.93-24.6,2.15-24.6,2.15l-11.63,24.07s0,.14,0,.4a36.89,36.89,0,0,0-1.83,11l.89-.83s-.66,7.07,1.95,11.69l.91-1a23.8,23.8,0,0,0,4.66,5.22c3.13,2.84,8,5.43,16.55,6.4,10,1.13,22.1,4.59,29.48,4.32,16.57-.6,17.43-17.12,17.43-17.12C225.21,316.46,224.73,302.25,223.18,299.18Z" style="fill: rgb(61, 165, 218); transform-origin: 184.274px 301.421px;" id="el6h7c66m6sqg" class="animable"></path><g id="elu8vfgpcb51"><path d="M216.31,316s-.86,16.52-17.43,17.12c-7.38.27-19.52-3.19-29.48-4.32-8.52-1-13.42-3.56-16.55-6.4a24.23,24.23,0,0,1-4.67-5.22l-.9,1c-2.61-4.63-2-11.7-2-11.7l-.88.83a37,37,0,0,1,1.83-11c0-.26,0-.4,0-.4l11.63-24.07.86-.13c.84-.12,2.29-.33,4.07-.56,5.55-.74,14.52-1.75,19.67-1.46,7.87.45,21,8.4,24.07,12.93,2.16,3.15,2.9,7.6,3.15,9.94.1,1,.12,1.58.12,1.58s11.75,1.94,13.31,5S225.21,316.46,216.31,316Z" style="fill: rgb(255, 255, 255); opacity: 0.3; transform-origin: 184.209px 301.387px;" class="animable"></path></g><g id="elizmbrk4hq5f"><path d="M221,314.34a6.06,6.06,0,0,1-4.72,1.65s-.57,10.95-9.73,15.34a19,19,0,0,1-7.7,1.78c-7.38.27-19.52-3.19-29.48-4.32-8.52-1-13.42-3.56-16.55-6.4.47-2.23,1.45-6.05,3.06-8.51l-2.46.1s-1.15-5.09,10.91-7.61,21.28-8.13,24.12-11.08,1.45-14-.26-15.84-5.26-2.95-4.38-4.14,6.28,2.2,8.22,5.79,5.73,11.87,7.18,12.84a106.35,106.35,0,0,1,10.64.22s11.75,1.94,13.31,5C224.38,301.55,224.94,310.56,221,314.34Z" style="fill: rgb(255, 255, 255); opacity: 0.6; transform-origin: 188.442px 304.096px;" class="animable"></path></g><path d="M180.2,292.28c-.4,2.19-2.13,3.67-3.87,3.32s-2.85-2.4-2.47-4.6,2.12-3.71,3.88-3.36S180.6,290.07,180.2,292.28Z" style="fill: rgb(38, 50, 56); transform-origin: 177.034px 291.62px;" id="el728ypwpl7f" class="animable"></path><path d="M206.06,288.48c.53,2.19-.31,4.27-1.87,4.66s-3.25-1.05-3.78-3.23.29-4.29,1.86-4.69S205.54,286.29,206.06,288.48Z" style="fill: rgb(38, 50, 56); transform-origin: 203.234px 289.179px;" id="elc0os1q80vws" class="animable"></path><path d="M222.19,299c-3.35-2.52-10.29-1.56-12.56,2.08-1.89,3,8.23,7,8.23,7S224.58,300.83,222.19,299Z" style="fill: rgb(38, 50, 56); transform-origin: 216.049px 302.835px;" id="elmqx8ec7fjhc" class="animable"></path><g id="elbo2ejx97emo"><path d="M221,314.34a6.06,6.06,0,0,1-4.72,1.65s-.57,10.95-9.73,15.34c-11.36-1.19-17.38-11-17.38-11,12.27,2.2,27.13-6,27.13-6a4.93,4.93,0,0,0,4.69,0Z" style="opacity: 0.1; transform-origin: 205.085px 322.83px;" class="animable"></path></g><path d="M218.45,315.44a4.29,4.29,0,0,1-2.32-.84.34.34,0,1,1,.41-.54,3.42,3.42,0,0,0,2.24.67.34.34,0,0,1,.4.27.34.34,0,0,1-.27.4A2.45,2.45,0,0,1,218.45,315.44Z" style="fill: rgb(38, 50, 56); transform-origin: 217.58px 314.707px;" id="el5x61d2ddyyb" class="animable"></path><path d="M213.71,316s-.13,10.67-9.77,10.68c-5.54,0-11.92-5.46-11.92-5.46A77.25,77.25,0,0,0,213.71,316Z" style="fill: rgb(38, 50, 56); transform-origin: 202.865px 321.34px;" id="el9nu6oxjorzb" class="animable"></path><path d="M197,321.21a64.68,64.68,0,0,0,7.85,10C209,335.37,214,329,208.69,318A86.1,86.1,0,0,1,197,321.21Z" style="fill: rgb(61, 165, 218); transform-origin: 203.994px 325.246px;" id="eldegdijnf7m" class="animable"></path><path d="M193.31,321.47a9.71,9.71,0,0,1-3.62-.55l-.55-.22a9,9,0,0,1-5.44-4.45.34.34,0,1,1,.62-.3,8.39,8.39,0,0,0,5.07,4.11l.56.23c5.06,2.11,23.3-3.23,26.14-6.2,2.61-2.72.85-9.36.83-9.43a.34.34,0,0,1,.24-.42.34.34,0,0,1,.42.24c.08.29,1.88,7.09-1,10.09C214.29,317,200.9,321.47,193.31,321.47Z" style="fill: rgb(38, 50, 56); transform-origin: 200.937px 312.852px;" id="eleedylu2ln29" class="animable"></path><path d="M206.54,325.46a.34.34,0,0,1-.33-.25,17.06,17.06,0,0,0-2.76-5.39.34.34,0,1,1,.53-.43,17.46,17.46,0,0,1,2.89,5.63.35.35,0,0,1-.24.43Z" style="fill: rgb(38, 50, 56); transform-origin: 205.128px 322.362px;" id="elt0rwdc3f23" class="animable"></path><g id="el2p07jixueoo"><path d="M162.87,271.17a7.41,7.41,0,0,1-1.06,3.52l-3-3C159.64,271.61,161.09,271.4,162.87,271.17Z" style="opacity: 0.1; transform-origin: 160.84px 272.93px;" class="animable"></path></g><path d="M161.82,274.69s-5.36-21-18.44-28.38c-5.53-3.13-5.31,45.63,6.63,55.32C161.73,311.13,161.82,274.69,161.82,274.69Z" style="fill: rgb(61, 165, 218); transform-origin: 150.853px 274.688px;" id="eldcn72of1nzd" class="animable"></path><g id="el30wanaj7cvm"><path d="M161.82,274.69s-5.36-21-18.44-28.38c-5.53-3.13-5.31,45.63,6.63,55.32C161.73,311.13,161.82,274.69,161.82,274.69Z" style="fill: rgb(255, 255, 255); opacity: 0.3; transform-origin: 150.853px 274.688px;" class="animable"></path></g><g id="elj5qik5umba9"><path d="M143.74,248.7c.41-1.59,10,17.67,11.33,28.89,1.3,11-6.71,18.21-6.71,18.21S136.39,277.72,143.74,248.7Z" style="fill: rgb(255, 255, 255); opacity: 0.6; transform-origin: 148.283px 272.204px;" class="animable"></path></g><g id="ellgdklxuryvf"><path d="M209.13,311a.51.51,0,1,1-.51-.51A.51.51,0,0,1,209.13,311Z" style="opacity: 0.2; transform-origin: 208.62px 311px;" class="animable"></path></g><g id="elo6dd6xrxzf"><path d="M221.43,313.12c-.14.24-.32.39-.41.34s-.06-.29.08-.53.33-.4.42-.35S221.57,312.87,221.43,313.12Z" style="opacity: 0.2; transform-origin: 221.268px 313.02px;" class="animable"></path></g><g id="elezvkf8wzr3r"><path d="M223.55,308.38c0,.28-.15.49-.25.48s-.16-.25-.13-.53.15-.49.25-.48S223.58,308.1,223.55,308.38Z" style="opacity: 0.2; transform-origin: 223.36px 308.355px;" class="animable"></path></g><g id="eldmnapw17n4g"><path d="M221.08,310c0,.28-.15.5-.25.48s-.17-.25-.13-.52.14-.5.25-.48S221.11,309.74,221.08,310Z" style="opacity: 0.2; transform-origin: 220.889px 309.98px;" class="animable"></path></g><g id="elcjtw4935jm7"><path d="M206.41,314.33a.51.51,0,1,1-.51-.51A.51.51,0,0,1,206.41,314.33Z" style="opacity: 0.2; transform-origin: 205.9px 314.33px;" class="animable"></path></g><g id="eliy501u96kn"><path d="M204.25,310a.51.51,0,0,1-1,0,.51.51,0,0,1,1,0Z" style="opacity: 0.2; transform-origin: 203.75px 310px;" class="animable"></path></g><g id="el9damr9813bh"><circle cx="200.97" cy="313.65" r="0.51" style="opacity: 0.2; transform-origin: 200.97px 313.65px;" class="animable"></circle></g><g id="el5vtlm1lcxh7"><path d="M198.3,316a.51.51,0,0,1-1,0,.51.51,0,0,1,1,0Z" style="opacity: 0.2; transform-origin: 197.8px 316px;" class="animable"></path></g><g id="elzdxw9pjfbns"><circle cx="193.07" cy="313.82" r="0.51" style="opacity: 0.2; transform-origin: 193.07px 313.82px;" class="animable"></circle></g><g id="elnasgs03te4i"><path d="M197.79,311a.51.51,0,0,1-.51.51.51.51,0,0,1,0-1A.51.51,0,0,1,197.79,311Z" style="opacity: 0.2; transform-origin: 197.33px 311.01px;" class="animable"></path></g><g id="elx1m78kanzgh"><path d="M209.88,294.16s-12.39-.84-17.86,1c0,0,4.94-4,17.74-2.56C209.86,293.55,209.88,294.16,209.88,294.16Z" style="opacity: 0.1; transform-origin: 200.95px 293.724px;" class="animable"></path></g><path d="M185.83,363.67s-8.79,11.18-9.62,19h2a39.22,39.22,0,0,0-2.09,16.77s-7,.32-16.46-.22c-16-.92-21.24,5.34-16.21,17.54h74.24s6.39-5.81,6.27-9.65l.54,5.06s9.23-10.21,9.06-19.1S218.52,340.56,185.83,363.67Z" style="fill: rgb(61, 165, 218); transform-origin: 187.586px 386.878px;" id="el3f0xwcyj1lu" class="animable"></path><g id="elrznmyn2ojf"><path d="M233.55,393c.17,8.89-9.06,19.1-9.06,19.1l-.54-5.05c.12,3.83-6.27,9.64-6.27,9.64H143.44c-5-12.2.2-18.46,16.21-17.54,9.47.54,16.46.21,16.46.21a39.19,39.19,0,0,1,2.09-16.76h-2c.83-7.78,9.62-19,9.62-19C218.52,340.56,233.37,384.14,233.55,393Z" style="fill: rgb(255, 255, 255); opacity: 0.3; transform-origin: 187.581px 386.823px;" class="animable"></path></g><g id="elvvnllxffot"><path d="M176.11,399.4c9.49-.28,15.52,3.34,16.23,7,0,0-1.77-5.73-3.56-7h2.82a14,14,0,0,0-9.11-3A8,8,0,0,0,176.11,399.4Z" style="opacity: 0.1; transform-origin: 184.225px 401.397px;" class="animable"></path></g><g id="elnub9qa7toln"><path d="M151,416.72h-2.43s-4.33-7.52-.49-11.7C148.1,405.46,147.74,413,151,416.72Z" style="opacity: 0.1; transform-origin: 148.746px 410.87px;" class="animable"></path></g><g id="ell4b9cd5knlf"><path d="M159.88,416.72h-3.43c-.21-.4-3.5-6.9-.55-10.36C155.9,406.36,156,413.08,159.88,416.72Z" style="opacity: 0.1; transform-origin: 157.279px 411.54px;" class="animable"></path></g><g id="eltg27iarcgfn"><path d="M170.15,416.72H167s2.39-2.4,1.31-4.15C168.26,412.57,171.31,413.08,170.15,416.72Z" style="opacity: 0.1; transform-origin: 168.707px 414.645px;" class="animable"></path></g><g id="elnsnosctbbj"><path d="M360.15,394.76c.46,0,.92-.08,1.38-.13a4.93,4.93,0,0,1-1.92.15Z" style="opacity: 0.1; transform-origin: 360.57px 394.722px;" class="animable"></path></g><path d="M399.38,404.59l-3.47-2.36s3.77,10.85-7.07,14.49H327.13c-.8-.38-10.32-5.14-11.94-15.5,0,0,1.13,1.47,4.35,1.84a31.79,31.79,0,0,1-4.2-25s9,7.8,19.76,10.72l-1.32-4.68a43.74,43.74,0,0,0,3.63,2.75c.2.15.42.3.65.45,1,.68,2.17,1.42,3.45,2.15.24.15.49.29.75.43l.47.25c.24.14.49.27.74.39.42.23.85.45,1.29.65l1,.49c.27.12.54.25.81.35.52.23,1.05.45,1.59.65.31.12.63.24.95.34s.54.2.81.28l.18.07.7.21.06,0a33.29,33.29,0,0,0,3.45.82l.71.12.35.05.67.08a3.91,3.91,0,0,0,.48.05c.29,0,.57.05.85.07a18,18,0,0,0,2.2,0l.54,0c.46,0,.92-.08,1.38-.13l-4.18-7.05a21.23,21.23,0,0,1,14.28-7.33l-1.22,4.1s12.61-2.93,21.5,4.58S399.38,404.59,399.38,404.59Z" style="fill: rgb(61, 165, 218); transform-origin: 356.929px 397.39px;" id="el7u12pooyfxx" class="animable"></path><g id="elpxutvhs5pg"><path d="M399.38,404.59l-3.47-2.36s3.77,10.85-7.07,14.49H327.13c-.8-.38-10.32-5.14-11.94-15.5,0,0,1.13,1.47,4.35,1.84a31.79,31.79,0,0,1-4.2-25s9,7.8,19.76,10.72l-1.32-4.68a43.74,43.74,0,0,0,3.63,2.75c.2.15.42.3.65.45,1,.68,2.17,1.42,3.45,2.15l.75.43.47.25c.24.14.49.26.74.39.42.23.85.45,1.29.65l1,.49.81.35c.52.23,1.05.45,1.59.65.31.12.63.24.95.34s.54.2.81.28l.18.07.7.21.06,0a33.29,33.29,0,0,0,3.45.82l.71.12.35.05c.22,0,.45.07.67.08a3.91,3.91,0,0,0,.48.05c.28,0,.57.05.85.07a18,18,0,0,0,2.2,0l.54,0c.46,0,.92-.08,1.38-.13l-4.18-7.05a21.23,21.23,0,0,1,14.28-7.33l-1.22,4.1s12.61-2.93,21.5,4.58S399.38,404.59,399.38,404.59Z" style="fill: rgb(255, 255, 255); opacity: 0.3; transform-origin: 356.929px 397.39px;" class="animable"></path></g><g id="el969sxhh3uhi"><path d="M369.86,389.92c-2.71,4.15-8.33,4.71-8.33,4.71l-4.18-7.05c6.84-2.66,11,.51,11,.51a4,4,0,0,0,1.1-2.14S372.56,385.79,369.86,389.92Z" style="opacity: 0.1; transform-origin: 364.156px 390.29px;" class="animable"></path></g><g id="eldg5mmvld7vb"><path d="M359.43,408.56s-2.55,4.06-17.64,2.41a15.06,15.06,0,0,0,5.76,2.64s-1.67,1.9-5.94,3.11H327.13c-.8-.38-10.32-5.14-11.94-15.5,0,0,1.13,1.47,4.35,1.84a31.79,31.79,0,0,1-4.2-25s9,7.8,19.76,10.72l-1.32-4.68s7.65,6.67,17.12,9.48a16.35,16.35,0,0,0,5,3.82s-6.59.34-9.9-1.18C346,396.21,347.41,404.67,359.43,408.56Z" style="fill: rgb(255, 255, 255); opacity: 0.6; transform-origin: 336.915px 397.39px;" class="animable"></path></g></g><g id="freepik--Cat--inject-46" class="animable" style="transform-origin: 274.702px 342.105px;"><path d="M282.72,308.72s14.48,8.59,14.83,14.3c0,0,51.1,28.75,34.5,93.7H256.69s-10.25-23.37-3-38.31l-.65.11c2.41-3.66,4.38-3.1,4.38-3.1s2.34-27.65,1.42-35.65-5.15-25.45-5.15-25.45Z" style="fill: rgb(38, 50, 56); transform-origin: 293.232px 362.72px;" id="elv2dz4qqbubl" class="animable"></path><g id="elrorqnwcfny"><path d="M335.37,392.12c0,.61,0,1.22,0,1.85a93.49,93.49,0,0,1-1,11.22l-.24,1.61q-.76,4.81-2.07,9.92H256.69s-.93-2.13-2-5.53a75.61,75.61,0,0,1-3-12.44c-1-6.74-1-14.24,2-20.34l-.65.11c1.56-2.37,2.94-3,3.72-3.1a1.69,1.69,0,0,1,.67,0s.12-1.51.31-3.93c.6-7.93,1.81-25.59,1.1-31.72-.24-2.1-.71-4.85-1.28-7.77-1.56-8.19-3.87-17.68-3.87-17.68l29.06-5.6s1.2.71,2.91,1.86c3.92,2.63,10.55,7.53,11.73,11.48a3.79,3.79,0,0,1,.19,1s.52.3,1.43.88a72.62,72.62,0,0,1,6.8,5c.81.69,1.67,1.43,2.55,2.22a86.39,86.39,0,0,1,7.29,7.43c.81.94,1.64,1.93,2.45,3h0a82.41,82.41,0,0,1,6.06,8.76h0c.78,1.3,1.53,2.64,2.26,4a76,76,0,0,1,4.86,11.41h0c.33,1,.64,2,.92,3a78,78,0,0,1,2.23,10.11c.13.83.24,1.66.34,2.5A84.6,84.6,0,0,1,335.37,392.12Z" style="fill: rgb(255, 255, 255); opacity: 0.2; transform-origin: 293.232px 362.72px;" class="animable"></path></g><g id="elbkpyshpkw25"><path d="M268.09,320.12s-5.28,4.43-5.73,7.22l-1.21-.67s.38,7.89-.31,12.3l-.82-2.19a54.13,54.13,0,0,1-.85,9.79c-.05-2.65-.16-5-.36-6.8-.92-8-5.15-25.45-5.15-25.45l3.47-.67A125.47,125.47,0,0,1,268.09,320.12Z" style="fill: rgb(255, 255, 255); opacity: 0.2; transform-origin: 260.875px 330.11px;" class="animable"></path></g><g id="el51cbm4wu6ot"><path d="M285.63,310.58c-1.14,3.59-4.29,11.4-10.68,14.25v-1a40.22,40.22,0,0,0-9.31,5.45l.45-2.58a27.17,27.17,0,0,0-8.56,5.33c-1.56-8.19-3.87-17.68-3.87-17.68l29.06-5.6S283.92,309.43,285.63,310.58Z" style="opacity: 0.2; transform-origin: 269.645px 320.39px;" class="animable"></path></g><g id="elb24sm11u16"><path d="M257.4,375.42h-.67A1.69,1.69,0,0,1,257.4,375.42Z" style="opacity: 0.2; transform-origin: 257.065px 375.403px;" class="animable"></path></g><g id="eln3rfd7t1rg"><path d="M273.15,388.68s-6.81-11.05-15.75-13.26c0,0,.12-1.51.31-3.93a13.75,13.75,0,0,1,3.44,0l2.34-8.73c2.44-1.44,6.15-8.81,6.15-8.81V356c3.09-2.37,1.76-10.87,1.76-10.87,2,2.87.71,10.87.71,10.87l-.71-2.1s.25,3.16-3.31,5.88-2.82,9.87-2.82,9.87C270.16,375.43,273.15,388.68,273.15,388.68Z" style="opacity: 0.2; transform-origin: 265.275px 366.905px;" class="animable"></path></g><g id="el2hcclapqee8"><g style="opacity: 0.4; transform-origin: 294.459px 365.185px;" class="animable"><path d="M260.84,346.57a3.17,3.17,0,0,0,2.53-.3,22.63,22.63,0,0,0,2.24-1.47,12,12,0,0,1,2.47-1.35,5.1,5.1,0,0,1,2.8-.33,12.42,12.42,0,0,0-4.8,2.37,11.08,11.08,0,0,1-2.46,1.38,2.86,2.86,0,0,1-.71.19,2.61,2.61,0,0,1-.74,0,2.91,2.91,0,0,1-.72-.17A4.65,4.65,0,0,1,260.84,346.57Z" id="elyw8zr8tbduq" class="animable" style="transform-origin: 265.86px 345.07px;"></path><path d="M262.09,340.35a4.47,4.47,0,0,0,2.08-1.47c.59-.64,1.17-1.32,1.8-2a8.88,8.88,0,0,1,2.2-1.67,3.73,3.73,0,0,1,2.71-.36,5.08,5.08,0,0,0-2.38.92,14.76,14.76,0,0,0-1.94,1.7,26.6,26.6,0,0,1-1.95,1.85A3.43,3.43,0,0,1,262.09,340.35Z" id="elajp0xruwrsj" class="animable" style="transform-origin: 266.485px 337.546px;"></path><path d="M269.65,347.47a36,36,0,0,1-3.67,3.94,13.6,13.6,0,0,1-2.19,1.64,4,4,0,0,1-2.64.71,5.88,5.88,0,0,0,2.27-1.25c.68-.54,1.34-1.13,2-1.72s1.32-1.19,2-1.75A14.47,14.47,0,0,1,269.65,347.47Z" id="el2n006vegpfr" class="animable" style="transform-origin: 265.4px 350.622px;"></path><path d="M260,379.46a8.37,8.37,0,0,0-2.64,3.61,37.73,37.73,0,0,0-1.65,4.25q-.72,2.16-1.26,4.38a32.65,32.65,0,0,0-.81,4.52,16.79,16.79,0,0,1,.16-4.64,30.58,30.58,0,0,1,1.12-4.53,23.53,23.53,0,0,1,1.87-4.28c.19-.34.41-.67.62-1s.47-.63.71-.94A4.54,4.54,0,0,1,260,379.46Z" id="elxfdey0noohe" class="animable" style="transform-origin: 256.774px 387.84px;"></path><path d="M257.4,404.93a33.3,33.3,0,0,1,.91-5,35.55,35.55,0,0,1,1.6-4.8,20.28,20.28,0,0,1,2.48-4.45,6.73,6.73,0,0,1,4.09-2.88,7.66,7.66,0,0,0-3.56,3.26,28.33,28.33,0,0,0-2.24,4.39c-.65,1.53-1.21,3.09-1.74,4.66S257.89,403.32,257.4,404.93Z" id="eledi2rmgzh8q" class="animable" style="transform-origin: 261.94px 396.365px;"></path><path d="M263.58,411.1a20,20,0,0,1,3-7.13,15.39,15.39,0,0,1,2.58-3,9.64,9.64,0,0,1,3.39-1.9,15.94,15.94,0,0,0-2.95,2.38,24.66,24.66,0,0,0-2.33,2.94,37.49,37.49,0,0,0-1.94,3.24C264.71,408.8,264.12,409.93,263.58,411.1Z" id="elj1rm0jpt0j" class="animable" style="transform-origin: 268.065px 405.085px;"></path><path d="M283.2,313.65a143.91,143.91,0,0,1,15.31,19.68c2.26,3.5,4.38,7.1,6.33,10.79A105.62,105.62,0,0,1,310,355.56a84.35,84.35,0,0,1,5.1,24.5,96.7,96.7,0,0,1,0,12.51,84.23,84.23,0,0,1-1.68,12.36,101,101,0,0,0,.86-12.4,113.48,113.48,0,0,0-.47-12.37,100.08,100.08,0,0,0-1.87-12.2c-.19-1-.47-2-.72-3s-.47-2-.8-3c-.62-2-1.2-3.92-2-5.83a132.56,132.56,0,0,0-11-22.13A206.24,206.24,0,0,0,283.2,313.65Z" id="elynisk15vag" class="animable" style="transform-origin: 299.251px 359.29px;"></path><path d="M285.63,321.83a13.9,13.9,0,0,0-4.29,3.07,17.67,17.67,0,0,0-2.85,4.3c-.8,1.56-1.44,3.23-2.12,4.91a32.09,32.09,0,0,1-2.34,5c.33-1.82.64-3.6,1.1-5.38a26.3,26.3,0,0,1,1.86-5.25,13.79,13.79,0,0,1,3.46-4.51A9.18,9.18,0,0,1,285.63,321.83Z" id="elsrpegv0r3x9" class="animable" style="transform-origin: 279.83px 330.47px;"></path><path d="M289.12,328.3a6.56,6.56,0,0,0-2.81,1.63,20.1,20.1,0,0,0-2.2,2.41,46,46,0,0,0-3.62,5.48c-1.11,1.9-2.11,3.87-3.06,5.87s-1.79,4.05-2.6,6.17a25,25,0,0,1,1.39-6.66A35.13,35.13,0,0,1,279,337a28.06,28.06,0,0,1,4.09-5.5,14.21,14.21,0,0,1,2.69-2.2A5.7,5.7,0,0,1,289.12,328.3Z" id="el26zfhtonwyt" class="animable" style="transform-origin: 281.975px 339.079px;"></path><path d="M294.86,336.73a5.41,5.41,0,0,0-2.32,1.39,19.44,19.44,0,0,0-1.91,1.94,46.48,46.48,0,0,0-3.34,4.32c-1,1.5-2,3-2.92,4.61s-1.77,3.18-2.54,4.83l-1.21,2.51c-.46.84-.92,1.66-1.44,2.45-1,1.56-2.14,3.06-3.26,4.52a34.94,34.94,0,0,0-3,4.51A11.46,11.46,0,0,0,271.4,373a10.35,10.35,0,0,1,.73-5.53,28.32,28.32,0,0,1,2.72-4.92c1-1.56,2.07-3.05,3-4.61l.68-1.16.64-1.19,1.16-2.48a49.35,49.35,0,0,1,5.92-9.5,36.19,36.19,0,0,1,3.81-4.12,17.74,17.74,0,0,1,2.21-1.73A5.2,5.2,0,0,1,294.86,336.73Z" id="elzuusq86vi6" class="animable" style="transform-origin: 283.078px 354.865px;"></path><path d="M300.2,346.57a15.2,15.2,0,0,0-5.05,2.58,23.37,23.37,0,0,0-4,3.9,33.35,33.35,0,0,0-3.17,4.64l-1.33,2.52c-.45.86-.89,1.73-1.37,2.57-1,1.7-2,3.34-3.05,5l-3.26,4.76a29.59,29.59,0,0,0-2.82,4.9,15.66,15.66,0,0,0-1.25,5.53,13.31,13.31,0,0,1,.48-5.8,25.15,25.15,0,0,1,2.48-5.33c2-3.34,4.13-6.49,6-9.84.49-.82.93-1.66,1.38-2.5s.93-1.72,1.42-2.56a29.14,29.14,0,0,1,3.55-4.72,21.23,21.23,0,0,1,4.58-3.71A13,13,0,0,1,300.2,346.57Z" id="elmgxzjjqme2" class="animable" style="transform-origin: 287.487px 364.77px;"></path><path d="M305.5,360.44a29.85,29.85,0,0,0-9.5,4.08,20.93,20.93,0,0,0-3.85,3.29c-.3.3-.54.65-.81,1s-.53.65-.81,1c-.54.71-1.11,1.4-1.69,2.07-2.37,2.67-5,5.05-7.48,7.47a35.72,35.72,0,0,0-3.48,3.82,8.23,8.23,0,0,0-1.94,4.69,7.7,7.7,0,0,1,1.25-5.14,28.77,28.77,0,0,1,3.22-4.27c2.36-2.65,4.9-5.06,7.17-7.67.57-.65,1.13-1.3,1.66-2,.26-.32.55-.68.85-1a11,11,0,0,1,.91-1,19,19,0,0,1,4.32-3.31A22.43,22.43,0,0,1,305.5,360.44Z" id="elnmtz8rltyf" class="animable" style="transform-origin: 290.696px 374.15px;"></path><path d="M307.65,373a44.08,44.08,0,0,0-8.55,3.41,24,24,0,0,0-3.73,2.5,16.31,16.31,0,0,0-1.56,1.55c-.24.25-.5.56-.77.88s-.54.6-.83.89a41.48,41.48,0,0,1-7.64,5.56c-1.31.82-2.64,1.61-3.87,2.51a11.59,11.59,0,0,0-1.73,1.47,4.34,4.34,0,0,0-1.14,1.94,4.17,4.17,0,0,1,.78-2.23,10.8,10.8,0,0,1,1.56-1.81,37.72,37.72,0,0,1,3.67-3A60.87,60.87,0,0,0,291,381c.27-.26.52-.53.77-.8s.49-.56.78-.87a15,15,0,0,1,1.79-1.68,20.25,20.25,0,0,1,4.15-2.44A26.56,26.56,0,0,1,307.65,373Z" id="elnv8xplt5quo" class="animable" style="transform-origin: 292.74px 383.355px;"></path><path d="M308.48,387.84a30.57,30.57,0,0,0-7.84,1,48.83,48.83,0,0,0-7.4,2.65c-2.45,1-4.89,2.07-7.28,3.19-1.19.57-2.37,1.15-3.5,1.83a13.58,13.58,0,0,0-1.62,1.1,4.37,4.37,0,0,0-.69.67,1.83,1.83,0,0,0-.45.86,2.79,2.79,0,0,1,.82-1.86,11.1,11.1,0,0,1,1.47-1.44,25.36,25.36,0,0,1,3.36-2.31,58.08,58.08,0,0,1,7.25-3.58c1.25-.5,2.48-1,3.79-1.44a27.55,27.55,0,0,1,4-.95A19.38,19.38,0,0,1,308.48,387.84Z" id="el2qwz7aj5sxg" class="animable" style="transform-origin: 294.09px 393.201px;"></path><path d="M308.48,399.12c-2.31.21-4.6.36-6.89.5s-4.55.31-6.81.55c-1.13.09-2.26.22-3.38.38s-2.23.33-3.34.54a18.55,18.55,0,0,0-6.36,2.25,9.48,9.48,0,0,1,2.76-2.18,19.47,19.47,0,0,1,3.28-1.34,34.41,34.41,0,0,1,6.88-1.32,52.2,52.2,0,0,1,7-.18A42.29,42.29,0,0,1,308.48,399.12Z" id="elaif74zqd1oe" class="animable" style="transform-origin: 295.09px 400.808px;"></path><path d="M299,323.9l-.9-.37c-1.58-.61-3.17-1.2-4.86-1.7a14,14,0,0,1,4.14.23,3.79,3.79,0,0,1,.19,1S298.07,323.32,299,323.9Z" id="eles0mwigbal" class="animable" style="transform-origin: 296.12px 322.835px;"></path><path d="M308.33,331.16l-1.72-.67a43.11,43.11,0,0,0-8.07-2.19,22.71,22.71,0,0,1,7.24.64C306.59,329.63,307.45,330.37,308.33,331.16Z" id="el7eeq1accrnf" class="animable" style="transform-origin: 303.435px 329.7px;"></path><path d="M318.07,341.55c-1.07-.66-2.15-1.3-3.25-1.9a48.69,48.69,0,0,0-9.32-4,22.46,22.46,0,0,1,5.05,1,36.84,36.84,0,0,1,4.85,1.83l.22.1C316.43,339.53,317.26,340.52,318.07,341.55Z" id="elp2m25u0dtek" class="animable" style="transform-origin: 311.785px 338.6px;"></path><path d="M326.4,354.37c-.18-.19-.37-.36-.57-.54a30.89,30.89,0,0,0-8-5.43,60.57,60.57,0,0,0-9.34-3.24,33.74,33.74,0,0,1,9.85,2,25.93,25.93,0,0,1,4.57,2.27l1.23.84h0C324.92,351.63,325.67,353,326.4,354.37Z" id="el4eh4ro9kzh4" class="animable" style="transform-origin: 317.445px 349.765px;"></path><path d="M332.18,368.76l-1.61-1.45c-.63-.55-1.34-1-2-1.52s-1.38-.93-2.08-1.4a23,23,0,0,0-2.17-1.24,33.92,33.92,0,0,0-9.5-3.43A24.51,24.51,0,0,1,324.9,362a30.21,30.21,0,0,1,6.36,3.81h0C331.59,366.76,331.9,367.75,332.18,368.76Z" id="el9csd2v18xxh" class="animable" style="transform-origin: 323.5px 364.24px;"></path><path d="M334.75,381.37c-.36-.36-.75-.68-1.14-1a13.68,13.68,0,0,0-1.45-1.19,30.1,30.1,0,0,0-6.47-3.84,33.78,33.78,0,0,0-7.3-2.32,19.86,19.86,0,0,1,7.77,1.1,24,24,0,0,1,7,3.73c.42.33.83.68,1.23,1C334.54,379.7,334.65,380.53,334.75,381.37Z" id="el2oax8be0b5w" class="animable" style="transform-origin: 326.57px 377.178px;"></path><path d="M335.37,392.12c0,.61,0,1.22,0,1.85l-.29-.18c-.48-.3-1-.58-1.48-.85s-1-.56-1.49-.8l-1.53-.75-1.57-.68c-1-.44-2.11-.84-3.19-1.2a41.43,41.43,0,0,0-6.69-1.67,19.68,19.68,0,0,1,7,.42,28,28,0,0,1,6.69,2.39C333.68,391.11,334.54,391.6,335.37,392.12Z" id="el8k3v1ysqqso" class="animable" style="transform-origin: 327.25px 390.835px;"></path><path d="M334.36,405.19l-.24,1.61-.78-.37c-.9-.44-1.82-.84-2.75-1.21-1.85-.8-3.76-1.44-5.68-2.12l-5.82-2a29.1,29.1,0,0,1,6.17.69,36.07,36.07,0,0,1,6,1.83C332.29,404.13,333.35,404.63,334.36,405.19Z" id="elwkzac27g43" class="animable" style="transform-origin: 326.725px 403.95px;"></path><path d="M325.32,416.72h-2.24l-1.7-1.88c-1-1.13-2-2.28-3-3.51a21.53,21.53,0,0,1,3.88,2.56A27.19,27.19,0,0,1,325.32,416.72Z" id="elu2pg192iczn" class="animable" style="transform-origin: 321.85px 414.025px;"></path></g></g><path d="M288.46,295.18c4.73-11.65-1.53-24.43-1.53-24.43a33.56,33.56,0,0,0-14.82,9.92,87.23,87.23,0,0,0-10-.8c-1.55-3.26-5.92-10.77-13.87-12.38,0,0-4.71,14.43-.82,22.39a63.92,63.92,0,0,0-4.39,6.57c-2.82,5,.48,12,3,15.87s9.83,8.76,17.09,9.54c10.6,1.13,22.38-6.49,24.82-10.79C289.2,308.8,290.29,301.9,288.46,295.18Z" style="fill: rgb(38, 50, 56); transform-origin: 266.088px 294.731px;" id="elnzlgnupsgg" class="animable"></path><g id="el63xx5thiwr8"><path d="M287.92,311.07a6.32,6.32,0,0,1-.63.92q-.21.27-.48.57c-3.65,4.12-13.13,9.66-22.15,9.4-.52,0-1.05,0-1.56-.1a27.49,27.49,0,0,1-13.44-5.73,16.71,16.71,0,0,1-3.66-3.81,26.94,26.94,0,0,1-3.72-8.56c-.05-.21-.1-.43-.13-.65a10,10,0,0,1,.88-6.66l0,0c.14-.24.28-.5.44-.76s.21-.36.33-.55c1-1.57,2.22-3.4,3.6-5.24a12.22,12.22,0,0,1-.89-2.44c-2.15-8.15,1.7-19.95,1.7-19.95,7.44,1.5,11.75,8.17,13.55,11.7q.18.36.33.69h.47c.3,0,.6,0,.91,0s.63,0,.94,0h.19c.71,0,1.41.08,2.1.13l.18,0c.92.07,1.81.16,2.64.25h.1l.8.1c.6.07,1.17.13,1.67.2a33.56,33.56,0,0,1,14.82-9.92s6.26,12.78,1.53,24.43a29.4,29.4,0,0,1,.91,9.5c0,.53-.09,1-.15,1.52A14.52,14.52,0,0,1,287.92,311.07Z" style="fill: rgb(255, 255, 255); opacity: 0.2; transform-origin: 266.068px 294.739px;" class="animable"></path></g><g id="eljv5kz06h8m7"><path d="M264.7,321.83c-.53,0-1.06,0-1.59,0a23.23,23.23,0,0,1-13.33-6.08,9.37,9.37,0,0,1-.81-6.95l.22.84a3.79,3.79,0,0,1,1.1-3.25l0,1.78s.95-5.65,5.54-4l3.22.53c5-.72,7.32,6.27,7.32,6.27l.44-1.56s3.09,2.45,3.38,5.66l1.19-.55S270.29,320.47,264.7,321.83Z" style="fill: rgb(255, 255, 255); opacity: 0.2; transform-origin: 260.009px 312.849px;" class="animable"></path></g><path d="M272.74,299.8c-.18,2-1.41,3.55-2.74,3.43s-2.28-1.84-2.1-3.85,1.4-3.55,2.74-3.44S272.92,297.79,272.74,299.8Z" style="fill: rgb(38, 50, 56); transform-origin: 270.32px 299.585px;" id="elswjbgs1s7jq" class="animable"></path><path d="M254.75,297.35c-.48,2-1.92,3.3-3.23,3s-2-2.17-1.49-4.13,1.93-3.3,3.23-3S255.23,295.39,254.75,297.35Z" style="fill: rgb(38, 50, 56); transform-origin: 252.383px 296.786px;" id="elh3ao8g61bf" class="animable"></path><path d="M254.5,304.05a3.14,3.14,0,0,1,3.89.46c.68.57-2,2.54-2,2.54S253.91,304.89,254.5,304.05Z" style="fill: rgb(38, 50, 56); transform-origin: 256.455px 305.314px;" id="eloedjnjxkhkl" class="animable"></path><path d="M261.57,313.08c-2.2,0-5.19-1.36-5.61-2.17-.55-1.07-.05-4.94,0-5.71a.41.41,0,0,1,.45-.34.4.4,0,0,1,.34.45c-.23,1.68-.47,4.58-.14,5.23s4,2.25,5.84,1.62c.27-.1,1.1-.39.83-2a.4.4,0,0,1,.33-.46.4.4,0,0,1,.46.33c.33,2-.74,2.67-1.4,2.89A3.48,3.48,0,0,1,261.57,313.08Z" style="fill: rgb(38, 50, 56); transform-origin: 259.918px 308.969px;" id="elqvxxjwjjmt" class="animable"></path><path d="M254.85,311.59a4,4,0,0,1-2.28-.81,3,3,0,0,1-1.4-2,1.9,1.9,0,0,1,.4-1.39.4.4,0,0,1,.56,0,.41.41,0,0,1,0,.56,1,1,0,0,0-.21.78,2.28,2.28,0,0,0,1.07,1.41c1.81,1.28,3,.3,3,.29a.4.4,0,1,1,.52.61A2.89,2.89,0,0,1,254.85,311.59Z" style="fill: rgb(38, 50, 56); transform-origin: 253.905px 309.433px;" id="el2azwpzojiy4" class="animable"></path><g id="el6i4rxtjwtmy"><path d="M289.22,306.2c-1.56-1.67-5.51-4.52-15.19-6.65,0,0,10.87.66,15.34,5.13C289.33,305.21,289.28,305.72,289.22,306.2Z" style="opacity: 0.4; transform-origin: 281.7px 302.875px;" class="animable"></path></g><g id="elxf9k7o5d20k"><path d="M259.72,296.49c0,.25.52-10.41,4.9-16.53.71,0,1.41.08,2.1.13l.18,0A38.89,38.89,0,0,0,259.72,296.49Z" style="opacity: 0.4; transform-origin: 263.31px 288.227px;" class="animable"></path></g><g id="elko2ehj8ve6j"><path d="M273.14,284.56s6.36-9.3,13.12-12.45a27.47,27.47,0,0,1,.86,22.35s-4.62-1-6-3c0,0,1.05-2.8,3-3.8a8.23,8.23,0,0,0-3.43,2s.72-4.62,2.54-6.78c0,0-3.53,2.53-4.44,6C278.73,288.91,274,287.3,273.14,284.56Z" style="fill: rgb(255, 255, 255); opacity: 0.2; transform-origin: 281.114px 283.285px;" class="animable"></path></g><g id="el1y6rhgoh8u3"><path d="M272.11,280.67a18.25,18.25,0,0,0-1.12,2.67,5.83,5.83,0,0,1-1.35-3C270.55,280.47,271.39,280.57,272.11,280.67Z" style="opacity: 0.2; transform-origin: 270.875px 281.84px;" class="animable"></path></g><g id="elfnurl8ny0d8"><path d="M248.18,289.32s3.38-3.46,5.27-4.45c0,0-1.47-2.82-2.09-3.08a7.3,7.3,0,0,1,2.52,1.58s-.3-3-1.52-4.48a13.86,13.86,0,0,1,3.16,4.34l3-1.81a24.89,24.89,0,0,0-10-12.75S244.27,281.58,248.18,289.32Z" style="fill: rgb(255, 255, 255); opacity: 0.2; transform-origin: 252.523px 278.995px;" class="animable"></path></g><g id="eldm1giafe9k"><path d="M243.05,296.43a63.34,63.34,0,0,1,4.37-6.55,12.22,12.22,0,0,1-.89-2.44c4-3.78,10.24-4.95,10.24-4.95A56.78,56.78,0,0,0,243.05,296.43Z" style="opacity: 0.2; transform-origin: 249.91px 289.46px;" class="animable"></path></g><g id="el9dbrxvaukt"><path d="M270.44,280.47a19.39,19.39,0,0,0-1.92,2.51,13.18,13.18,0,0,0-1.15,2.16c-.31.73-.5,1.59-.91,2.35a23,23,0,0,1-3,4,11.73,11.73,0,0,0-2.6,4.1,11.74,11.74,0,0,1,2.44-4.23,22.79,22.79,0,0,0,2.81-4.08,23.75,23.75,0,0,0,.79-2.34,14.26,14.26,0,0,1,1.09-2.3,22.74,22.74,0,0,1,1.57-2.3h.1Z" style="opacity: 0.4; transform-origin: 265.65px 287.965px;" class="animable"></path></g><g id="eld4ui9ut5vwl"><path d="M259.05,290a24.07,24.07,0,0,1-.23,4.57,24.8,24.8,0,0,0,0-4.56,16.2,16.2,0,0,1,0-2.31,6.6,6.6,0,0,1,.73-2.22,19.71,19.71,0,0,0,.88-2.1,13.53,13.53,0,0,1,1.11-2c.32-.48.65-1,1-1.4.3,0,.6,0,.91,0-.49.56-.95,1.13-1.39,1.74a12.41,12.41,0,0,0-1.15,1.91c-.29.67-.62,1.42-1,2.08a5.74,5.74,0,0,0-.8,2.06A18.79,18.79,0,0,0,259.05,290Z" style="opacity: 0.4; transform-origin: 261.114px 287.275px;" class="animable"></path></g><g id="elcn2dmylkwc"><path d="M287.29,312q-.21.27-.48.57a28.8,28.8,0,0,1-5.94-3.5,11.64,11.64,0,0,1-3.28-3.6,5,5,0,0,0-3.81-2.58,5.14,5.14,0,0,1,4,2.48,11.18,11.18,0,0,0,3.35,3.36A29,29,0,0,0,287.29,312Z" style="opacity: 0.4; transform-origin: 280.535px 307.73px;" class="animable"></path></g><g id="el4z3otw5nwku"><path d="M249,294.72a12.15,12.15,0,0,0-2.76.15,11.87,11.87,0,0,0-2.63.77l-.08,0c.1-.18.21-.36.33-.55a12.68,12.68,0,0,1,2.35-.46A12.39,12.39,0,0,1,249,294.72Z" style="opacity: 0.4; transform-origin: 246.265px 295.115px;" class="animable"></path></g><g id="el8za9eq6sbne"><path d="M248.16,298.43A6.17,6.17,0,0,0,245.4,300a18,18,0,0,0-2.11,2.42c-.35.44-.68.89-1,1.33-.05-.21-.1-.43-.13-.65l.81-.95a19.3,19.3,0,0,1,2.3-2.31A6.32,6.32,0,0,1,248.16,298.43Z" style="opacity: 0.4; transform-origin: 245.16px 301.09px;" class="animable"></path></g><g id="eljh6ygz11qei"><path d="M300.2,403.13S268,416.4,254.65,411.19a75.61,75.61,0,0,1-3-12.44C260.46,401.57,283.09,406.59,300.2,403.13Z" style="opacity: 0.2; transform-origin: 275.925px 405.576px;" class="animable"></path></g><path d="M304,400.73s-44,15.47-64.58-1.8c-24.69-20.71-3-47.64-8.32-52.36s-12.72-4.62-16,11.23-1.45,58.92,41.55,58.92h52.62Z" style="fill: rgb(38, 50, 56); transform-origin: 261.651px 380.287px;" id="elnm4a9a14gl" class="animable"></path><g id="elpe0457hcb7f"><path d="M309.31,416.72H256.69c-1.32,0-2.6,0-3.85-.12-.56,0-1.12-.08-1.67-.14a41.8,41.8,0,0,1-16-4.56c-.51-.26-1-.55-1.48-.84a34.78,34.78,0,0,1-10.24-9.29c-.35-.48-.68-1-1-1.44a46,46,0,0,1-5.82-12.73c-.17-.56-.33-1.13-.46-1.69a64.09,64.09,0,0,1-1.88-11.77c0-.58-.06-1.16-.09-1.73a67.5,67.5,0,0,1,.23-9.38,51.42,51.42,0,0,1,.76-5.23c3.25-15.85,10.66-16,16-11.23,2.39,2.13-.69,8.76-2.54,17.3a50,50,0,0,0-1.14,7.89c0,.55-.06,1.11-.07,1.67a32.81,32.81,0,0,0,.94,8.6c.14.55.29,1.1.47,1.65a29.5,29.5,0,0,0,4.38,8.59c.33.47.69.94,1.07,1.4a39.19,39.19,0,0,0,5.22,5.27,28.44,28.44,0,0,0,3,2.17c.5.31,1,.62,1.53.9a36.31,36.31,0,0,0,8.43,3.33l1.63.4a62.13,62.13,0,0,0,13.49,1.36h1.75a103.94,103.94,0,0,0,13.17-1.19l1.81-.29A131.67,131.67,0,0,0,304,400.74Z" style="fill: rgb(255, 255, 255); opacity: 0.2; transform-origin: 261.721px 380.276px;" class="animable"></path></g><g id="el3e156pfpxjj"><path d="M228.56,363.87c-4.9-2.07-10.43-1.6-14.18-.84a51.42,51.42,0,0,1,.76-5.23c3.25-15.85,10.66-16,16-11.23C233.49,348.7,230.41,355.33,228.56,363.87Z" style="opacity: 0.4; transform-origin: 223.184px 353.851px;" class="animable"></path></g><g id="el8btfyy56g04"><g style="opacity: 0.4; transform-origin: 257.546px 394.066px;" class="animable"><path d="M227.42,371.76c0,.55-.06,1.11-.07,1.67a33,33,0,0,0-13.11.71c0-.58-.06-1.16-.09-1.73A35.2,35.2,0,0,1,227.42,371.76Z" id="eldclq0cuwmjv" class="animable" style="transform-origin: 220.785px 372.776px;"></path><path d="M228.76,383.68a31.55,31.55,0,0,0-12.18,3.92c-.17-.56-.33-1.13-.46-1.69A33.44,33.44,0,0,1,228.29,382C228.43,382.58,228.58,383.13,228.76,383.68Z" id="eld2ruzkrmfkg" class="animable" style="transform-origin: 222.44px 384.8px;"></path><path d="M234.21,393.67a28,28,0,0,0-10.79,8.1c-.35-.48-.68-1-1-1.44a29.19,29.19,0,0,1,10.74-8.06C233.47,392.74,233.83,393.21,234.21,393.67Z" id="el9aydnvr3r7a" class="animable" style="transform-origin: 228.315px 397.02px;"></path><path d="M242.39,401.11c.5.31,1,.62,1.53.9a46.7,46.7,0,0,0-8.78,9.89c-.51-.26-1-.55-1.48-.84A48.27,48.27,0,0,1,242.39,401.11Z" id="eldb436mswx1q" class="animable" style="transform-origin: 238.79px 406.505px;"></path><path d="M254,405.74a95.26,95.26,0,0,0-1.14,10.86c-.56,0-1.12-.08-1.67-.14a95.35,95.35,0,0,1,1.18-11.12Z" id="el7rtz9ur2z3r" class="animable" style="transform-origin: 252.595px 410.97px;"></path><path d="M269.22,407.09a32,32,0,0,0-.91,9.63h-1.68a35.41,35.41,0,0,1,.84-9.62h1.75Z" id="el44rhcc4ybu9" class="animable" style="transform-origin: 267.903px 411.905px;"></path><path d="M288.55,416.72h-1.7c-.66-4.15-3-8.38-4.46-10.82l1.81-.29A32.16,32.16,0,0,1,288.55,416.72Z" id="elja383izliu" class="animable" style="transform-origin: 285.47px 411.165px;"></path><path d="M300.8,416.72h-1.65c1.05-5.62-.93-12-.93-12A18.65,18.65,0,0,1,300.8,416.72Z" id="el1tmz9iwj2kk" class="animable" style="transform-origin: 299.581px 410.72px;"></path></g></g></g><g id="freepik--Food--inject-46" class="animable" style="transform-origin: 106.835px 400.662px;"><path d="M87.25,395.11A4.58,4.58,0,0,1,89,391.44a3.74,3.74,0,0,1,2-.55s-.8-1.6,2-1.74,1.72-.34,2.64-1.55,3.56-.75,3.56-.75-.66-1.11,3-2,4.55.92,4.55.92,1.24-1.7,2.83-.92a4.31,4.31,0,0,1,2,2.79,2.4,2.4,0,0,1,3.43,0l1.71,1.69a6.18,6.18,0,0,1,2.9,1c1.32.89,1,.89,2,.89a6.59,6.59,0,0,1,2.84.08,4.24,4.24,0,0,1,2.24,2.15C128.53,396.54,87.25,395.11,87.25,395.11Z" style="fill: rgb(61, 165, 218); transform-origin: 107.004px 390.022px;" id="elpvh90b8vt3" class="animable"></path><path d="M137.1,416.72H76.57L81,393.91a2,2,0,0,1,.9-1.32,2,2,0,0,1,1.09-.32h47.69a1.94,1.94,0,0,1,.73.14,2,2,0,0,1,1.26,1.5l1,5.3,1,5.05.58,3,.7,3.56Z" style="fill: rgb(38, 50, 56); transform-origin: 106.835px 404.495px;" id="elbecbe3h1uu" class="animable"></path><g id="elu1f1s2em0zi"><path d="M136,410.83H109a6.37,6.37,0,0,1-6.25-5.81c0-.15,0-.31,0-.46a5.29,5.29,0,0,1,5.38-5.35H133.7l1,5.05.58,3Z" style="fill: rgb(255, 255, 255); opacity: 0.4; transform-origin: 119.375px 405.02px;" class="animable"></path></g><g id="elsqn40t3ml6d"><g style="opacity: 0.4; transform-origin: 122.175px 405.135px;" class="animable"><path d="M112.49,402.54l-1,2.8-1.4-2.8h-.92l1.94,3.79,0,.15c-.14.38-.32.52-.63.52a1,1,0,0,1-.67-.26l-.3.65a1.67,1.67,0,0,0,1,.35c.62,0,1.09-.26,1.37-1.12l1.45-4.08Z" id="elkdfml6su15" class="animable" style="transform-origin: 111.25px 405.14px;"></path><path d="M117.54,402.54h-.88l.15,1.91c.06.76-.33,1.14-1,1.14s-.91-.32-1-1l-.15-2h-.89l.17,2.16a1.62,1.62,0,0,0,1.75,1.67,1.45,1.45,0,0,0,1.18-.53l0,.48h.84Z" id="el0dxynl9kporh" class="animable" style="transform-origin: 115.74px 404.483px;"></path><path d="M125.14,404.16a1.71,1.71,0,0,0-3-1,1.56,1.56,0,0,0-1.32-.63,1.45,1.45,0,0,0-1.2.53l0-.49h-.84l.29,3.78h.88l-.14-1.92c-.06-.75.31-1.13.89-1.13s.88.33.93,1l.15,2.05h.89l-.15-1.92c-.06-.75.32-1.13.9-1.13s.87.33.92,1l.16,2.05h.88Z" id="ela54b2qum41w" class="animable" style="transform-origin: 122.08px 404.439px;"></path><path d="M132.58,404.16a1.71,1.71,0,0,0-3-1,1.56,1.56,0,0,0-1.32-.63,1.45,1.45,0,0,0-1.2.53l0-.49h-.84l.29,3.78h.88l-.14-1.92c-.06-.75.31-1.13.89-1.13s.88.33.93,1l.15,2.05H130l-.15-1.92c-.06-.75.32-1.13.9-1.13s.87.33.92,1l.16,2.05h.88Z" id="elqajgdewpc5" class="animable" style="transform-origin: 129.465px 404.439px;"></path><path d="M134.68,404.26l-.86-1.72h-.92l1.93,3.79-.05.15c-.14.38-.31.52-.62.52a1,1,0,0,1-.67-.26l-.31.65a1.69,1.69,0,0,0,1,.35,1.19,1.19,0,0,0,1-.47Z" id="elx73kqgbn5x" class="animable" style="transform-origin: 134.04px 405.141px;"></path></g></g><g id="elnqxgvg6ukw"><path d="M124.57,391.22a1.57,1.57,0,0,1-.43.38,2.56,2.56,0,0,1-1.12.26,16.7,16.7,0,0,1-5-.76l-1.12-.29a.72.72,0,0,0-.32,0c-.21,0-.39.22-.6.19s-.3-.19-.47-.26c-.43-.16-.85.42-1.3.34a2.62,2.62,0,0,1-.39-.15,2.32,2.32,0,0,0-.59,0,2.2,2.2,0,0,1-2-1.14,4.15,4.15,0,0,1-2.44,1.67,2.34,2.34,0,0,1-2.54-1.19c-.07-.16-.13-.35-.29-.43s-.46.08-.59.29a2.62,2.62,0,0,1-.35.61,1.27,1.27,0,0,1-.86.24,6.09,6.09,0,0,1-3.89-.79.67.67,0,0,0-.52-.22c-.18,0-.29.2-.4.34a3.83,3.83,0,0,1-5.42.63,1,1,0,0,1-1.31.27c-.11-.07-.21-.17-.34-.17s-.29.13-.42.24a3.27,3.27,0,0,1-2.9.22,3.74,3.74,0,0,1,2-.55s-.8-1.6,2-1.74,1.72-.34,2.64-1.55,3.56-.75,3.56-.75-.66-1.11,3-2,4.55.92,4.55.92,1.24-1.7,2.83-.92a4.31,4.31,0,0,1,2,2.79,2.4,2.4,0,0,1,3.43,0l1.71,1.69a6.18,6.18,0,0,1,2.9,1c1.32.89,1,.89,2,.89A6.59,6.59,0,0,1,124.57,391.22Z" style="fill: rgb(255, 255, 255); opacity: 0.2; transform-origin: 106.765px 388.262px;" class="animable"></path></g><g id="elr7sdade3mdc"><path d="M131.43,392.59a1.72,1.72,0,0,1-1.71,1.71H83.61a1.72,1.72,0,0,1-1.71-1.71,2,2,0,0,1,1.09-.32h47.69a1.94,1.94,0,0,1,.73.14A.55.55,0,0,1,131.43,392.59Z" style="fill: rgb(255, 255, 255); opacity: 0.1; transform-origin: 106.665px 393.285px;" class="animable"></path></g></g><defs>     <filter id="active" height="200%">         <feMorphology in="SourceAlpha" result="DILATED" operator="dilate" radius="2"></feMorphology>                <feFlood flood-color="#32DFEC" flood-opacity="1" result="PINK"></feFlood>        <feComposite in="PINK" in2="DILATED" operator="in" result="OUTLINE"></feComposite>        <feMerge>            <feMergeNode in="OUTLINE"></feMergeNode>            <feMergeNode in="SourceGraphic"></feMergeNode>        </feMerge>    </filter>    <filter id="hover" height="200%">        <feMorphology in="SourceAlpha" result="DILATED" operator="dilate" radius="2"></feMorphology>                <feFlood flood-color="#ff0000" flood-opacity="0.5" result="PINK"></feFlood>        <feComposite in="PINK" in2="DILATED" operator="in" result="OUTLINE"></feComposite>        <feMerge>            <feMergeNode in="OUTLINE"></feMergeNode>            <feMergeNode in="SourceGraphic"></feMergeNode>        </feMerge>            <feColorMatrix type="matrix" values="0   0   0   0   0                0   1   0   0   0                0   0   0   0   0                0   0   0   1   0 "></feColorMatrix>    </filter></defs></svg>