<svg class="animated" id="freepik_stories-penguin-family" xmlns="http://www.w3.org/2000/svg" viewBox="0 0 500 500" version="1.1" xmlns:xlink="http://www.w3.org/1999/xlink" xmlns:svgjs="http://svgjs.com/svgjs"><style>svg#freepik_stories-penguin-family:not(.animated) .animable {opacity: 0;}svg#freepik_stories-penguin-family.animated #freepik--background-complete--inject-129 {animation: 1s 1 forwards cubic-bezier(.36,-0.01,.5,1.38) slideDown;animation-delay: 0s;}svg#freepik_stories-penguin-family.animated #freepik--Shadow--inject-129 {animation: 1s 1 forwards cubic-bezier(.36,-0.01,.5,1.38) lightSpeedRight;animation-delay: 0s;}svg#freepik_stories-penguin-family.animated #freepik--Penguin-1--inject-129 {animation: 1s 1 forwards cubic-bezier(.36,-0.01,.5,1.38) slideRight;animation-delay: 0s;}svg#freepik_stories-penguin-family.animated #freepik--Penguin-2--inject-129 {animation: 1s 1 forwards cubic-bezier(.36,-0.01,.5,1.38) slideLeft;animation-delay: 0s;}svg#freepik_stories-penguin-family.animated #freepik--Penguin-3--inject-129 {animation: 1s 1 forwards cubic-bezier(.36,-0.01,.5,1.38) slideDown;animation-delay: 0s;}            @keyframes slideDown {                0% {                    opacity: 0;                    transform: translateY(-30px);                }                100% {                    opacity: 1;                    transform: translateY(0);                }            }                    @keyframes lightSpeedRight {              from {                transform: translate3d(50%, 0, 0) skewX(-20deg);                opacity: 0;              }              60% {                transform: skewX(10deg);                opacity: 1;              }              80% {                transform: skewX(-2deg);              }              to {                opacity: 1;                transform: translate3d(0, 0, 0);              }            }                    @keyframes slideRight {                0% {                    opacity: 0;                    transform: translateX(30px);                }                100% {                    opacity: 1;                    transform: translateX(0);                }            }                    @keyframes slideLeft {                0% {                    opacity: 0;                    transform: translateX(-30px);                }                100% {                    opacity: 1;                    transform: translateX(0);                }            }        </style><g id="freepik--background-complete--inject-129" class="animable" style="transform-origin: 250px 227.45px;"><rect y="382.4" width="500" height="0.25" style="fill: rgb(235, 235, 235); transform-origin: 250px 382.525px;" id="el8z6h5hpupi" class="animable"></rect><rect x="52.46" y="391.92" width="33.12" height="0.25" style="fill: rgb(235, 235, 235); transform-origin: 69.02px 392.045px;" id="elrij3kxmj37" class="animable"></rect><rect x="171.14" y="389.21" width="46.75" height="0.25" style="fill: rgb(235, 235, 235); transform-origin: 194.515px 389.335px;" id="el34p6pw56b2" class="animable"></rect><rect x="112.8" y="399.65" width="19.19" height="0.25" style="fill: rgb(235, 235, 235); transform-origin: 122.395px 399.775px;" id="eln75wo65q2p" class="animable"></rect><rect x="312.33" y="395.31" width="30.21" height="0.25" style="fill: rgb(235, 235, 235); transform-origin: 327.435px 395.435px;" id="ely6yadaqsba" class="animable"></rect><rect x="351.44" y="395.31" width="19.32" height="0.25" style="fill: rgb(235, 235, 235); transform-origin: 361.1px 395.435px;" id="elsaq4mhexu1h" class="animable"></rect><rect x="391.35" y="399.53" width="58.56" height="0.25" style="fill: rgb(235, 235, 235); transform-origin: 420.63px 399.655px;" id="el8rv8462uhdo" class="animable"></rect><path d="M237,337.8H43.91a5.71,5.71,0,0,1-5.7-5.71V60.66A5.71,5.71,0,0,1,43.91,55H237a5.71,5.71,0,0,1,5.71,5.71V332.09A5.71,5.71,0,0,1,237,337.8ZM43.91,55.2a5.46,5.46,0,0,0-5.45,5.46V332.09a5.46,5.46,0,0,0,5.45,5.46H237a5.47,5.47,0,0,0,5.46-5.46V60.66A5.47,5.47,0,0,0,237,55.2Z" style="fill: rgb(235, 235, 235); transform-origin: 140.46px 196.4px;" id="el1uaf3c3538e" class="animable"></path><path d="M453.31,337.8H260.21a5.72,5.72,0,0,1-5.71-5.71V60.66A5.72,5.72,0,0,1,260.21,55h193.1A5.71,5.71,0,0,1,459,60.66V332.09A5.71,5.71,0,0,1,453.31,337.8ZM260.21,55.2a5.47,5.47,0,0,0-5.46,5.46V332.09a5.47,5.47,0,0,0,5.46,5.46h193.1a5.47,5.47,0,0,0,5.46-5.46V60.66a5.47,5.47,0,0,0-5.46-5.46Z" style="fill: rgb(235, 235, 235); transform-origin: 356.75px 196.4px;" id="el2jnde4i5bqq" class="animable"></path><polygon points="189.48 345.51 196.79 324.21 219.38 317.59 272.09 226.48 280.91 230.15 293.18 192.68 411.44 156.75 430.33 222.07 434.67 315.23 425.99 382.4 183.13 382.4 182.59 360.95 189.48 345.51" style="fill: rgb(250, 250, 250); transform-origin: 308.63px 269.575px;" id="elvuf9cwg094p" class="animable"></polygon><polygon points="297.69 382.4 425.99 382.4 434.67 315.23 430.33 222.07 402.68 278.65 370.2 289.67 339.86 351.39 308.63 342.58 291.67 369.03 297.69 382.4" style="fill: rgb(245, 245, 245); transform-origin: 363.17px 302.235px;" id="elshk8jf1ht6n" class="animable"></polygon><polygon points="224.69 350.9 272.45 366.09 264.17 382.32 214.43 382.4 224.69 350.9" style="fill: rgb(245, 245, 245); transform-origin: 243.44px 366.65px;" id="el2hhv2asvfmf" class="animable"></polygon><polygon points="352.21 263.7 340.54 290.7 328.24 281.94 352.21 263.7" style="fill: rgb(245, 245, 245); transform-origin: 340.225px 277.2px;" id="elz21izn9gui" class="animable"></polygon><polygon points="293.18 192.68 294.79 216.19 280.91 230.15 293.18 192.68" style="fill: rgb(245, 245, 245); transform-origin: 287.85px 211.415px;" id="elyo8feic9nn" class="animable"></polygon><polygon points="297.23 247.17 302.37 266.74 266.8 284.75 297.23 247.17" style="fill: rgb(245, 245, 245); transform-origin: 284.585px 265.96px;" id="ela27qx053dsb" class="animable"></polygon><polygon points="424 365.67 412.67 356 377.67 353 296 311.67 282.33 313.33 263.33 296.33 77.22 270.32 50.83 309.67 44.11 351.93 57.56 382.4 433.83 382.4 434.67 372.67 424 365.67" style="fill: rgb(240, 240, 240); transform-origin: 239.39px 326.36px;" id="el09tjw699w0u6" class="animable"></polygon><polygon points="256.33 382.4 57.56 382.4 44.11 351.93 50.83 309.67 93.67 335.33 144 340.33 191 368.33 239.39 364.33 265.67 376.33 256.33 382.4" style="fill: rgb(224, 224, 224); transform-origin: 154.89px 346.035px;" id="el26cez4w3iy9" class="animable"></polygon><polygon points="369.44 368.11 295.44 375 308.28 382.36 385.33 382.4 369.44 368.11" style="fill: rgb(224, 224, 224); transform-origin: 340.385px 375.255px;" id="eljcizftejoas" class="animable"></polygon><polygon points="171.87 328.55 189.96 340.8 209.01 336.82 171.87 328.55" style="fill: rgb(224, 224, 224); transform-origin: 190.44px 334.675px;" id="elsfi3jjou7a" class="animable"></polygon><polygon points="263.33 296.33 260.83 307 282.33 313.33 263.33 296.33" style="fill: rgb(224, 224, 224); transform-origin: 271.58px 304.83px;" id="elmguda5bloak" class="animable"></polygon><polygon points="257.12 351.08 270.01 359.44 330.42 355.64 257.12 351.08" style="fill: rgb(224, 224, 224); transform-origin: 293.77px 355.26px;" id="elg5cdzx96dec" class="animable"></polygon><path d="M122.21,277.79l.57.06a1,1,0,0,0,1.09-.79,12.31,12.31,0,0,0,.5-4.69.82.82,0,0,0,.22-.61.78.78,0,0,0-1-.74,1.08,1.08,0,0,0-.89,1.13c-.46.53-1.11.64-1.45,4.41A1.11,1.11,0,0,0,122.21,277.79Z" style="fill: rgb(230, 230, 230); transform-origin: 122.917px 274.422px;" id="eljg89tr36aik" class="animable"></path><path d="M124.14,271.1c.23.13.88-.24,1.08-.21,0,0-.64.55-.63.89C124.08,271.76,124.14,271.1,124.14,271.1Z" style="fill: rgb(230, 230, 230); transform-origin: 124.679px 271.334px;" id="elvri9im0swqh" class="animable"></path><path d="M122.23,272.66c-.44.38-1.85,2.24-1.38,2.4.2.07.64-.56,1.16-.66S122.43,272.5,122.23,272.66Z" style="fill: rgb(230, 230, 230); transform-origin: 121.574px 273.858px;" id="elxkrih5115gk" class="animable"></path><path d="M124.39,273.11c.24.52.78,2.66.28,2.61-.21,0-.34-.78-.77-1.08S124.28,272.87,124.39,273.11Z" style="fill: rgb(230, 230, 230); transform-origin: 124.325px 274.402px;" id="el1rd2sbuhtfw" class="animable"></path><path d="M122.14,277.69l-.29-.14c-.19.24-.46.54.29.68S121.86,277.84,122.14,277.69Z" style="fill: rgb(230, 230, 230); transform-origin: 122.031px 277.902px;" id="eletqcvopzc3a" class="animable"></path><path d="M123.14,277.75l-.32-.06c-.12.29-.29.65.47.58S122.91,278,123.14,277.75Z" style="fill: rgb(230, 230, 230); transform-origin: 123.135px 277.984px;" id="eli81gqcfkvmn" class="animable"></path><path d="M196.49,287l0,.5a.9.9,0,0,0,.85.87,14.24,14.24,0,0,0,4.71.08.88.88,0,0,0,.63.15.71.71,0,0,0,.68-.9c-.11-.36-.45-.69-1.19-.67-.56-.36-.71-.91-4.49-.92A1.1,1.1,0,0,0,196.49,287Z" style="fill: rgb(230, 230, 230); transform-origin: 199.938px 287.357px;" id="eloiaaimtbu4" class="animable"></path><path d="M203.14,287.66c.09.23.83.38,1,.53s-.85,0-1.06.27C202.67,288.11,203.14,287.66,203.14,287.66Z" style="fill: rgb(230, 230, 230); transform-origin: 203.536px 288.06px;" id="elxx4zchg46a" class="animable"></path><path d="M200.81,286.38c-.47-.34-2.62-1.27-2.66-.77,0,.2.7.48.91,1S201,286.53,200.81,286.38Z" style="fill: rgb(230, 230, 230); transform-origin: 199.487px 286.142px;" id="eleya4nuu633q" class="animable"></path><path d="M196.56,287.08l.12-.31c-.26-.17-.35-.38-.88.18S196.38,286.81,196.56,287.08Z" style="fill: rgb(230, 230, 230); transform-origin: 196.169px 286.88px;" id="eljypqzfg97pd" class="animable"></path><path d="M196.63,287.47l.11-.3c-.25-.18-.35-.38-.87.18S196.45,287.2,196.63,287.47Z" style="fill: rgb(230, 230, 230); transform-origin: 196.236px 287.277px;" id="elhr6qmzakjds" class="animable"></path><path d="M138.75,282h-.52a.93.93,0,0,1-.87-.9,13.66,13.66,0,0,1,.15-4.71.87.87,0,0,1-.12-.63.72.72,0,0,1,1-.63,1.06,1.06,0,0,1,.66,1.22c.34.58.9.77.74,4.54A1.1,1.1,0,0,1,138.75,282Z" style="fill: rgb(230, 230, 230); transform-origin: 138.521px 278.536px;" id="el7gz24dxxpra" class="animable"></path><path d="M137.87,275.17c-.22.1-.75-.34-.94-.32,0,0,.51.61.46.94C137.84,275.83,137.87,275.17,137.87,275.17Z" style="fill: rgb(230, 230, 230); transform-origin: 137.4px 275.321px;" id="elhrk2wg5tsnu" class="animable"></path><path d="M139.37,276.94c.35.42,1.37,2.43.93,2.53-.18,0-.5-.62-.94-.78S139.22,276.75,139.37,276.94Z" style="fill: rgb(230, 230, 230); transform-origin: 139.769px 278.198px;" id="eloc9v965i74" class="animable"></path><path d="M137.4,277.14c-.28.49-1,2.55-.58,2.55.18,0,.4-.73.82-1S137.53,276.92,137.4,277.14Z" style="fill: rgb(230, 230, 230); transform-origin: 137.245px 278.404px;" id="elbzw8f2d35lw" class="animable"></path><path d="M138.82,281.93l.28-.1c.14.26.34.58-.35.64S139.05,282.12,138.82,281.93Z" style="fill: rgb(230, 230, 230); transform-origin: 138.87px 282.153px;" id="elmin97ohkh2a" class="animable"></path><path d="M137.93,281.88l.29,0c.07.3.18.68-.49.52S138.1,282.13,137.93,281.88Z" style="fill: rgb(230, 230, 230); transform-origin: 137.888px 282.159px;" id="elx1n8rhgt7jk" class="animable"></path><path d="M118.09,280.11l.33,0a.59.59,0,0,0,.63-.46,7.09,7.09,0,0,0,.29-2.7.48.48,0,0,0,.13-.36.46.46,0,0,0-.57-.43.63.63,0,0,0-.51.66c-.27.3-.64.37-.84,2.54A.64.64,0,0,0,118.09,280.11Z" style="fill: rgb(230, 230, 230); transform-origin: 118.505px 278.13px;" id="elc2s75qq4xwk" class="animable"></path><path d="M119.21,276.26c.13.07.51-.14.62-.13s-.37.32-.36.51C119.17,276.63,119.21,276.26,119.21,276.26Z" style="fill: rgb(230, 230, 230); transform-origin: 119.527px 276.385px;" id="el76sbl2iifxs" class="animable"></path><path d="M118.11,277.16c-.26.21-1.07,1.29-.8,1.38s.37-.32.67-.38S118.22,277.06,118.11,277.16Z" style="fill: rgb(230, 230, 230); transform-origin: 117.728px 277.853px;" id="elqzzl5i0s9om" class="animable"></path><path d="M119.35,277.41c.14.31.45,1.54.16,1.51-.11,0-.19-.45-.44-.63S119.29,277.28,119.35,277.41Z" style="fill: rgb(230, 230, 230); transform-origin: 119.314px 278.158px;" id="elc62dpctguic" class="animable"></path><path d="M118.06,280.05l-.17-.08c-.12.14-.27.31.17.4S117.89,280.14,118.06,280.05Z" style="fill: rgb(230, 230, 230); transform-origin: 117.994px 280.178px;" id="elo5etw9n2dr" class="animable"></path><path d="M118.63,280.09l-.18,0c-.07.16-.17.37.27.33S118.5,280.22,118.63,280.09Z" style="fill: rgb(230, 230, 230); transform-origin: 118.631px 280.257px;" id="elu0px5f7wa5d" class="animable"></path><path d="M127.64,282.56h-.3a.53.53,0,0,1-.5-.52,7.77,7.77,0,0,1,.08-2.71.52.52,0,0,1-.07-.37.41.41,0,0,1,.56-.36.62.62,0,0,1,.38.71c.19.33.52.44.42,2.61A.63.63,0,0,1,127.64,282.56Z" style="fill: rgb(230, 230, 230); transform-origin: 127.493px 280.566px;" id="ely9th0nqgoq" class="animable"></path><path d="M127.13,278.6c-.12.06-.44-.19-.54-.19s.29.36.26.55C127.11,279,127.13,278.6,127.13,278.6Z" style="fill: rgb(230, 230, 230); transform-origin: 126.852px 278.686px;" id="elagwy165puwv" class="animable"></path><path d="M128,279.62c.2.25.79,1.41.53,1.47-.1,0-.28-.37-.54-.46S127.91,279.51,128,279.62Z" style="fill: rgb(230, 230, 230); transform-origin: 128.225px 280.351px;" id="eliq386lvlde" class="animable"></path><path d="M126.86,279.74c-.17.28-.6,1.47-.34,1.47s.24-.42.48-.57S126.93,279.61,126.86,279.74Z" style="fill: rgb(230, 230, 230); transform-origin: 126.764px 280.468px;" id="el6az5r7qnu9l" class="animable"></path><path d="M127.68,282.5l.16-.06c.08.15.2.34-.2.38S127.81,282.61,127.68,282.5Z" style="fill: rgb(230, 230, 230); transform-origin: 127.708px 282.632px;" id="elyfzkljrk08" class="animable"></path><path d="M127.16,282.47h.17c0,.17.1.39-.28.3S127.26,282.62,127.16,282.47Z" style="fill: rgb(230, 230, 230); transform-origin: 127.131px 282.63px;" id="eltw6xplulyvb" class="animable"></path><path d="M167.32,295.84l.58.06a1,1,0,0,0,1.08-.78,12.33,12.33,0,0,0,.5-4.69.83.83,0,0,0,.22-.62.78.78,0,0,0-1-.74,1.08,1.08,0,0,0-.89,1.13c-.46.53-1.11.65-1.45,4.41A1.11,1.11,0,0,0,167.32,295.84Z" style="fill: rgb(230, 230, 230); transform-origin: 168.027px 292.472px;" id="eloxln5ur30b" class="animable"></path><path d="M169.26,289.16c.22.12.88-.25,1.08-.21,0,0-.65.55-.64.88C169.19,289.81,169.26,289.16,169.26,289.16Z" style="fill: rgb(230, 230, 230); transform-origin: 169.798px 289.388px;" id="elg9l0dqr3m2" class="animable"></path><path d="M167.35,290.72c-.45.37-1.86,2.24-1.38,2.4.19.06.63-.57,1.15-.66S167.54,290.55,167.35,290.72Z" style="fill: rgb(230, 230, 230); transform-origin: 166.688px 291.916px;" id="el74kjf9q0mrp" class="animable"></path><path d="M169.5,291.16c.24.53.78,2.67.28,2.61-.2,0-.34-.78-.77-1.08S169.39,290.93,169.5,291.16Z" style="fill: rgb(230, 230, 230); transform-origin: 169.435px 292.453px;" id="el7fg612v1xlq" class="animable"></path><path d="M167.25,295.74l-.29-.14c-.19.24-.46.54.29.68S167,295.9,167.25,295.74Z" style="fill: rgb(230, 230, 230); transform-origin: 167.143px 295.952px;" id="el10t0efw6iimo" class="animable"></path><path d="M168.25,295.8l-.32-.05c-.12.28-.29.64.47.58S168,296,168.25,295.8Z" style="fill: rgb(230, 230, 230); transform-origin: 168.243px 296.043px;" id="eld6xbp5drhln" class="animable"></path><path d="M87,305.33l.58.06a1,1,0,0,0,1.08-.78,12.13,12.13,0,0,0,.5-4.69.83.83,0,0,0,.22-.62.76.76,0,0,0-1-.74,1.08,1.08,0,0,0-.9,1.13c-.46.53-1.11.65-1.45,4.41A1.11,1.11,0,0,0,87,305.33Z" style="fill: rgb(230, 230, 230); transform-origin: 87.7022px 301.958px;" id="el1mklvoy37p3" class="animable"></path><path d="M89,298.65c.22.12.88-.25,1.08-.21,0,0-.65.55-.64.88C88.9,299.3,89,298.65,89,298.65Z" style="fill: rgb(230, 230, 230); transform-origin: 89.5364px 298.878px;" id="eltjsfobag6jd" class="animable"></path><path d="M87.06,300.21c-.45.37-1.86,2.24-1.38,2.4.19.06.64-.57,1.15-.66S87.25,300,87.06,300.21Z" style="fill: rgb(230, 230, 230); transform-origin: 86.3959px 301.404px;" id="elz3kcm48ntfh" class="animable"></path><path d="M89.21,300.65c.24.53.78,2.67.28,2.61-.2,0-.34-.78-.77-1.08S89.1,300.42,89.21,300.65Z" style="fill: rgb(230, 230, 230); transform-origin: 89.1453px 301.943px;" id="elwmmdbw3xzec" class="animable"></path><path d="M87,305.23l-.3-.14c-.19.24-.46.54.3.69S86.68,305.39,87,305.23Z" style="fill: rgb(230, 230, 230); transform-origin: 86.8853px 305.448px;" id="el4gd3f3i2qvg" class="animable"></path><path d="M88,305.29l-.32-.05c-.12.28-.29.64.47.58S87.74,305.52,88,305.29Z" style="fill: rgb(230, 230, 230); transform-origin: 87.9927px 305.533px;" id="elv1bl96djqun" class="animable"></path><path d="M200.13,310.3h-.52a.93.93,0,0,1-.87-.9,13.65,13.65,0,0,1,.14-4.71.91.91,0,0,1-.12-.64.72.72,0,0,1,1-.62,1,1,0,0,1,.65,1.22c.35.58.91.77.74,4.54A1.09,1.09,0,0,1,200.13,310.3Z" style="fill: rgb(230, 230, 230); transform-origin: 199.89px 306.836px;" id="elkbjkl05i1hr" class="animable"></path><path d="M199.24,303.45c-.21.1-.75-.34-.93-.33,0,0,.5.62.45.95C199.22,304.11,199.24,303.45,199.24,303.45Z" style="fill: rgb(230, 230, 230); transform-origin: 198.775px 303.596px;" id="eldx3m3xkx06u" class="animable"></path><path d="M200.75,305.22c.35.42,1.37,2.43.93,2.53-.19,0-.5-.63-1-.78S200.59,305,200.75,305.22Z" style="fill: rgb(230, 230, 230); transform-origin: 201.114px 306.476px;" id="eljos4y0plvz" class="animable"></path><path d="M198.78,305.41c-.29.5-1,2.56-.59,2.56.19,0,.41-.73.83-1S198.9,305.19,198.78,305.41Z" style="fill: rgb(230, 230, 230); transform-origin: 198.621px 306.679px;" id="elo83ufoc2bg" class="animable"></path><path d="M200.2,310.21l.28-.11c.14.26.34.59-.35.65S200.43,310.4,200.2,310.21Z" style="fill: rgb(230, 230, 230); transform-origin: 200.25px 310.428px;" id="elztp0k2gv3c" class="animable"></path><path d="M199.3,310.16l.29,0c.07.3.18.67-.49.52S199.48,310.41,199.3,310.16Z" style="fill: rgb(230, 230, 230); transform-origin: 199.258px 310.437px;" id="el2f335cmkk0y" class="animable"></path><path d="M242.93,313.66h-.52a.93.93,0,0,1-.87-.9,13.65,13.65,0,0,1,.14-4.71.87.87,0,0,1-.12-.63.72.72,0,0,1,1-.63,1,1,0,0,1,.65,1.22c.35.58.91.77.74,4.54A1.08,1.08,0,0,1,242.93,313.66Z" style="fill: rgb(230, 230, 230); transform-origin: 242.69px 310.197px;" id="el171gp05z01k" class="animable"></path><path d="M242.05,306.81c-.22.1-.76-.34-.94-.32,0,0,.5.61.45.94C242,307.47,242.05,306.81,242.05,306.81Z" style="fill: rgb(230, 230, 230); transform-origin: 241.58px 306.961px;" id="elvi219zxapc" class="animable"></path><path d="M243.55,308.58c.35.42,1.37,2.43.93,2.53-.19.05-.5-.62-.95-.78S243.4,308.39,243.55,308.58Z" style="fill: rgb(230, 230, 230); transform-origin: 243.944px 309.839px;" id="elcyatcfz0q" class="animable"></path><path d="M241.58,308.78c-.29.49-1,2.55-.59,2.55.19,0,.41-.73.83-1S241.7,308.56,241.58,308.78Z" style="fill: rgb(230, 230, 230); transform-origin: 241.421px 310.044px;" id="el7alr62cm2d5" class="animable"></path><path d="M243,313.57l.28-.1c.14.26.34.58-.35.64S243.23,313.76,243,313.57Z" style="fill: rgb(230, 230, 230); transform-origin: 243.05px 313.793px;" id="elethttw3xonm" class="animable"></path><path d="M242.1,313.52l.29,0c.08.3.19.68-.49.52S242.28,313.77,242.1,313.52Z" style="fill: rgb(230, 230, 230); transform-origin: 242.06px 313.799px;" id="elal5j5np0kkf" class="animable"></path><path d="M152,308.09l.33,0a.59.59,0,0,0,.63-.46,7.09,7.09,0,0,0,.29-2.7.48.48,0,0,0,.13-.36.45.45,0,0,0-.57-.43.63.63,0,0,0-.51.66c-.27.3-.64.37-.84,2.54A.65.65,0,0,0,152,308.09Z" style="fill: rgb(230, 230, 230); transform-origin: 152.416px 306.108px;" id="el758vmytixyo" class="animable"></path><path d="M153.07,304.23c.13.07.51-.14.62-.12s-.37.32-.36.51C153,304.61,153.07,304.23,153.07,304.23Z" style="fill: rgb(230, 230, 230); transform-origin: 153.385px 304.364px;" id="el35g2pr9sv5b" class="animable"></path><path d="M152,305.13c-.26.22-1.07,1.3-.8,1.39.11,0,.37-.33.67-.38S152.08,305,152,305.13Z" style="fill: rgb(230, 230, 230); transform-origin: 151.612px 305.82px;" id="el1g6gwqeci16" class="animable"></path><path d="M153.21,305.39c.14.3.45,1.54.16,1.51-.12,0-.19-.45-.44-.63S153.15,305.26,153.21,305.39Z" style="fill: rgb(230, 230, 230); transform-origin: 153.174px 306.138px;" id="elpi6hnuqlni" class="animable"></path><path d="M151.91,308l-.16-.08c-.12.14-.27.31.16.4S151.75,308.12,151.91,308Z" style="fill: rgb(230, 230, 230); transform-origin: 151.847px 308.129px;" id="el046mnz0v8bsm" class="animable"></path><path d="M152.49,308.07l-.18,0c-.07.16-.17.37.27.33S152.36,308.2,152.49,308.07Z" style="fill: rgb(230, 230, 230); transform-origin: 152.491px 308.237px;" id="elxi7ottlm2ir" class="animable"></path><path d="M174,316.65h-.3a.53.53,0,0,1-.5-.52,7.83,7.83,0,0,1,.08-2.72.49.49,0,0,1-.07-.36.41.41,0,0,1,.56-.36.59.59,0,0,1,.37.7c.2.34.53.44.43,2.62A.62.62,0,0,1,174,316.65Z" style="fill: rgb(230, 230, 230); transform-origin: 173.853px 314.656px;" id="el17bji3js8i3" class="animable"></path><path d="M173.44,312.7c-.13.06-.44-.19-.54-.19s.29.36.26.55C173.42,313.08,173.44,312.7,173.44,312.7Z" style="fill: rgb(230, 230, 230); transform-origin: 173.162px 312.785px;" id="elive0yipuk9" class="animable"></path><path d="M174.31,313.72c.2.24.79,1.4.53,1.46s-.29-.36-.54-.45S174.22,313.61,174.31,313.72Z" style="fill: rgb(230, 230, 230); transform-origin: 174.537px 314.449px;" id="eluzwfephjskn" class="animable"></path><path d="M173.17,313.83c-.17.29-.6,1.48-.34,1.48.11,0,.23-.42.47-.57S173.24,313.71,173.17,313.83Z" style="fill: rgb(230, 230, 230); transform-origin: 173.07px 314.564px;" id="elcdx1euimtie" class="animable"></path><path d="M174,316.6l.16-.06c.08.15.2.34-.2.37S174.12,316.71,174,316.6Z" style="fill: rgb(230, 230, 230); transform-origin: 174.027px 316.726px;" id="elewrisg54c4" class="animable"></path><path d="M173.47,316.57h.17c0,.17.1.39-.29.3S173.57,316.72,173.47,316.57Z" style="fill: rgb(230, 230, 230); transform-origin: 173.435px 316.73px;" id="elw1dphrclbw" class="animable"></path><path d="M272.31,329.44l.58.06a1,1,0,0,0,1.08-.78,12.33,12.33,0,0,0,.5-4.69.83.83,0,0,0,.22-.62.77.77,0,0,0-1-.74,1.08,1.08,0,0,0-.89,1.13c-.46.53-1.11.65-1.45,4.41A1.11,1.11,0,0,0,272.31,329.44Z" style="fill: rgb(230, 230, 230); transform-origin: 273.017px 326.07px;" id="elqzid4jo3srb" class="animable"></path><path d="M274.25,322.76c.22.12.88-.24,1.08-.21,0,0-.65.55-.64.88C274.18,323.41,274.25,322.76,274.25,322.76Z" style="fill: rgb(230, 230, 230); transform-origin: 274.788px 322.989px;" id="elslx9nc36naj" class="animable"></path><path d="M272.34,324.32c-.45.37-1.86,2.24-1.38,2.4.19.06.63-.57,1.15-.66S272.53,324.15,272.34,324.32Z" style="fill: rgb(230, 230, 230); transform-origin: 271.678px 325.516px;" id="elnq15xsnm2x" class="animable"></path><path d="M274.49,324.76c.24.53.78,2.67.28,2.61-.2,0-.34-.78-.77-1.08S274.38,324.53,274.49,324.76Z" style="fill: rgb(230, 230, 230); transform-origin: 274.425px 326.053px;" id="el9xr9z2206fj" class="animable"></path><path d="M272.24,329.34l-.29-.14c-.19.24-.46.54.29.69S272,329.5,272.24,329.34Z" style="fill: rgb(230, 230, 230); transform-origin: 272.134px 329.558px;" id="el11bn50255h2" class="animable"></path><path d="M273.24,329.4l-.32,0c-.12.28-.29.64.47.58S273,329.63,273.24,329.4Z" style="fill: rgb(230, 230, 230); transform-origin: 273.234px 329.693px;" id="el8o2wh2l0xph" class="animable"></path><path d="M304.18,333.67h-.52a.93.93,0,0,1-.87-.9,13.65,13.65,0,0,1,.14-4.71.87.87,0,0,1-.12-.63.72.72,0,0,1,1-.63,1,1,0,0,1,.65,1.22c.35.58.91.77.74,4.54A1.08,1.08,0,0,1,304.18,333.67Z" style="fill: rgb(230, 230, 230); transform-origin: 303.94px 330.207px;" id="eld94ux4x1wzv" class="animable"></path><path d="M303.29,326.82c-.21.1-.75-.34-.93-.32,0,0,.5.61.45.94C303.27,327.48,303.29,326.82,303.29,326.82Z" style="fill: rgb(230, 230, 230); transform-origin: 302.825px 326.971px;" id="el0zobtro0zbae" class="animable"></path><path d="M304.8,328.59c.35.42,1.37,2.43.93,2.53-.19.05-.5-.63-1-.78S304.65,328.4,304.8,328.59Z" style="fill: rgb(230, 230, 230); transform-origin: 305.165px 329.849px;" id="el31u6m3ebg27" class="animable"></path><path d="M302.83,328.79c-.29.49-1,2.55-.59,2.55.19,0,.41-.73.83-1S303,328.57,302.83,328.79Z" style="fill: rgb(230, 230, 230); transform-origin: 302.676px 330.054px;" id="elihkxta9rur" class="animable"></path><path d="M304.25,333.58l.28-.1c.14.26.34.58-.35.64S304.48,333.77,304.25,333.58Z" style="fill: rgb(230, 230, 230); transform-origin: 304.3px 333.803px;" id="el2ueulnmglgl" class="animable"></path><path d="M303.35,333.53l.29,0c.07.3.18.68-.49.52S303.53,333.78,303.35,333.53Z" style="fill: rgb(230, 230, 230); transform-origin: 303.309px 333.809px;" id="elhacf325x8m" class="animable"></path><path d="M266.5,335.58l.34,0a.58.58,0,0,0,.62-.45,7.12,7.12,0,0,0,.29-2.71.44.44,0,0,0,.13-.35.45.45,0,0,0-.57-.43.62.62,0,0,0-.51.65c-.27.31-.64.38-.84,2.55A.65.65,0,0,0,266.5,335.58Z" style="fill: rgb(230, 230, 230); transform-origin: 266.917px 333.603px;" id="ely5ogdnf8ttr" class="animable"></path><path d="M267.62,331.72c.13.07.51-.14.62-.12s-.37.32-.36.51C267.58,332.1,267.62,331.72,267.62,331.72Z" style="fill: rgb(230, 230, 230); transform-origin: 267.937px 331.854px;" id="el5rsyh99378h" class="animable"></path><path d="M266.52,332.62c-.26.22-1.07,1.3-.8,1.39.12,0,.37-.33.67-.38S266.63,332.53,266.52,332.62Z" style="fill: rgb(230, 230, 230); transform-origin: 266.138px 333.312px;" id="eljtegv8nqgf" class="animable"></path><path d="M267.76,332.88c.14.3.45,1.54.16,1.5-.11,0-.19-.44-.44-.62S267.7,332.74,267.76,332.88Z" style="fill: rgb(230, 230, 230); transform-origin: 267.724px 333.623px;" id="el8c9w8smqd8b" class="animable"></path><path d="M266.47,335.52l-.17-.08c-.11.14-.27.31.17.39S266.3,335.61,266.47,335.52Z" style="fill: rgb(230, 230, 230); transform-origin: 266.406px 335.642px;" id="elbudftidekm" class="animable"></path><path d="M267,335.56l-.18,0c-.07.17-.17.38.27.34S266.91,335.69,267,335.56Z" style="fill: rgb(230, 230, 230); transform-origin: 267.004px 335.732px;" id="elqa5kl687uk" class="animable"></path><path d="M276.05,338h-.3a.53.53,0,0,1-.5-.52,7.83,7.83,0,0,1,.08-2.72.49.49,0,0,1-.07-.36.41.41,0,0,1,.56-.36c.22.07.41.27.38.7.19.34.52.44.42,2.62A.62.62,0,0,1,276.05,338Z" style="fill: rgb(230, 230, 230); transform-origin: 275.903px 336.006px;" id="elpmhdadlyr8g" class="animable"></path><path d="M275.54,334.07c-.12.06-.44-.2-.54-.19s.29.36.26.55C275.53,334.45,275.54,334.07,275.54,334.07Z" style="fill: rgb(230, 230, 230); transform-origin: 275.262px 334.155px;" id="el5fxd0w4u5gi" class="animable"></path><path d="M276.41,335.09c.2.24.79,1.4.53,1.46-.1,0-.28-.36-.54-.45S276.32,335,276.41,335.09Z" style="fill: rgb(230, 230, 230); transform-origin: 276.635px 335.817px;" id="el0gndnhh0xbcf" class="animable"></path><path d="M275.27,335.2c-.17.29-.6,1.48-.34,1.48s.24-.42.48-.57S275.34,335.08,275.27,335.2Z" style="fill: rgb(230, 230, 230); transform-origin: 275.174px 335.934px;" id="elnckv02jqq2n" class="animable"></path><path d="M276.09,338l.16-.06c.08.15.2.34-.2.37S276.22,338.08,276.09,338Z" style="fill: rgb(230, 230, 230); transform-origin: 276.118px 338.126px;" id="el03c5eoyq2v8j" class="animable"></path><path d="M275.57,337.94h.17c0,.17.11.39-.28.3S275.67,338.09,275.57,337.94Z" style="fill: rgb(230, 230, 230); transform-origin: 275.541px 338.1px;" id="eleew3fg76s9u" class="animable"></path><path d="M296.15,346.67l.58.06a1,1,0,0,0,1.08-.79,12.31,12.31,0,0,0,.51-4.69.82.82,0,0,0,.22-.61.78.78,0,0,0-1-.74,1.08,1.08,0,0,0-.89,1.13c-.47.53-1.11.64-1.46,4.41A1.12,1.12,0,0,0,296.15,346.67Z" style="fill: rgb(230, 230, 230); transform-origin: 296.862px 343.302px;" id="el3fshg4r2h6c" class="animable"></path><path d="M298.09,340c.22.13.88-.24,1.08-.2,0,0-.65.54-.63.88C298,340.64,298.09,340,298.09,340Z" style="fill: rgb(230, 230, 230); transform-origin: 298.627px 340.238px;" id="elye95p72jz7" class="animable"></path><path d="M296.18,341.54c-.45.38-1.85,2.25-1.38,2.4.2.07.64-.56,1.15-.65S296.38,341.38,296.18,341.54Z" style="fill: rgb(230, 230, 230); transform-origin: 295.52px 342.738px;" id="el3aq4qp1ozss" class="animable"></path><path d="M298.33,342c.25.53.78,2.66.29,2.61-.21,0-.35-.78-.77-1.08S298.22,341.75,298.33,342Z" style="fill: rgb(230, 230, 230); transform-origin: 298.274px 343.291px;" id="el6tw873ljsk9" class="animable"></path><path d="M296.09,346.57l-.29-.14c-.2.24-.46.54.29.68S295.81,346.72,296.09,346.57Z" style="fill: rgb(230, 230, 230); transform-origin: 295.979px 346.782px;" id="elcq55s1y5gc5" class="animable"></path><path d="M297.09,346.63l-.32-.06c-.12.29-.3.65.47.58S296.86,346.86,297.09,346.63Z" style="fill: rgb(230, 230, 230); transform-origin: 297.085px 346.864px;" id="eloso50gioq9" class="animable"></path><path d="M347.49,359.52H347a.94.94,0,0,1-.87-.91,13.66,13.66,0,0,1,.15-4.71.82.82,0,0,1-.12-.63.72.72,0,0,1,1-.63,1.08,1.08,0,0,1,.66,1.23c.34.57.9.76.74,4.53A1.11,1.11,0,0,1,347.49,359.52Z" style="fill: rgb(230, 230, 230); transform-origin: 347.291px 356.051px;" id="elux1blgxr4yf" class="animable"></path><path d="M346.61,352.67c-.22.1-.76-.34-.94-.33,0,0,.51.62.46,1C346.58,353.32,346.61,352.67,346.61,352.67Z" style="fill: rgb(230, 230, 230); transform-origin: 346.14px 352.84px;" id="elnfvf2mqgx2p" class="animable"></path><path d="M348.11,354.43c.35.43,1.37,2.44.93,2.54-.18,0-.5-.63-.94-.78S348,354.25,348.11,354.43Z" style="fill: rgb(230, 230, 230); transform-origin: 348.515px 355.694px;" id="elbvnvrcpqtte" class="animable"></path><path d="M346.14,354.63c-.29.5-1,2.56-.58,2.56.18,0,.4-.73.82-1S346.27,354.41,346.14,354.63Z" style="fill: rgb(230, 230, 230); transform-origin: 345.985px 355.899px;" id="elaq74v5yoiru" class="animable"></path><path d="M347.56,359.43l.28-.11c.14.26.34.59-.35.65S347.79,359.62,347.56,359.43Z" style="fill: rgb(230, 230, 230); transform-origin: 347.61px 359.648px;" id="elxxixpza7yy9" class="animable"></path><path d="M346.67,359.38l.29,0c.07.29.18.67-.49.52S346.84,359.63,346.67,359.38Z" style="fill: rgb(230, 230, 230); transform-origin: 346.628px 359.657px;" id="elg4s8iel6cor" class="animable"></path><path d="M390.51,369.24h.39a.7.7,0,0,0,.66-.68,10.11,10.11,0,0,0-.11-3.54.66.66,0,0,0,.09-.48.55.55,0,0,0-.73-.47.8.8,0,0,0-.49.92c-.26.43-.68.58-.56,3.41A.82.82,0,0,0,390.51,369.24Z" style="fill: rgb(230, 230, 230); transform-origin: 390.703px 366.639px;" id="el9f2crsyv8y" class="animable"></path><path d="M391.18,364.09c.16.07.56-.26.7-.25s-.38.47-.34.71C391.2,364.58,391.18,364.09,391.18,364.09Z" style="fill: rgb(230, 230, 230); transform-origin: 391.542px 364.196px;" id="elh964n2ekw" class="animable"></path><path d="M390,365.42c-.26.32-1,1.83-.69,1.9.13,0,.37-.47.71-.58S390.16,365.28,390,365.42Z" style="fill: rgb(230, 230, 230); transform-origin: 389.721px 366.365px;" id="el1uwdfhp3wnd" class="animable"></path><path d="M391.53,365.56c.21.38.78,1.93.44,1.93-.14,0-.31-.55-.62-.74S391.43,365.4,391.53,365.56Z" style="fill: rgb(230, 230, 230); transform-origin: 391.654px 366.517px;" id="elijr4gqrpvke" class="animable"></path><path d="M390.46,369.17l-.21-.08c-.11.2-.26.45.26.49S390.29,369.32,390.46,369.17Z" style="fill: rgb(230, 230, 230); transform-origin: 390.42px 369.337px;" id="el92sbfn2t5dq" class="animable"></path><path d="M391.13,369.14l-.22,0c-.05.22-.13.51.37.39S391,369.33,391.13,369.14Z" style="fill: rgb(230, 230, 230); transform-origin: 391.161px 369.349px;" id="elde20r9fgpyr" class="animable"></path><path d="M221,355.05l.34,0a.59.59,0,0,0,.62-.45,7.14,7.14,0,0,0,.29-2.71.47.47,0,0,0,.13-.35.45.45,0,0,0-.57-.43.62.62,0,0,0-.51.65c-.27.31-.64.37-.84,2.54A.64.64,0,0,0,221,355.05Z" style="fill: rgb(230, 230, 230); transform-origin: 221.415px 353.073px;" id="elcod6qkdgu2g" class="animable"></path><path d="M222.14,351.2c.13.07.51-.14.62-.12s-.37.31-.36.51C222.1,351.58,222.14,351.2,222.14,351.2Z" style="fill: rgb(230, 230, 230); transform-origin: 222.457px 351.334px;" id="elmwzfu1bva4" class="animable"></path><path d="M221,352.1c-.26.22-1.07,1.29-.8,1.38.12,0,.37-.32.67-.38S221.15,352,221,352.1Z" style="fill: rgb(230, 230, 230); transform-origin: 220.626px 352.787px;" id="elt4embtto2g" class="animable"></path><path d="M222.28,352.35c.14.31.45,1.54.16,1.51-.11,0-.19-.45-.44-.62S222.22,352.22,222.28,352.35Z" style="fill: rgb(230, 230, 230); transform-origin: 222.244px 353.099px;" id="el6c9e3tl4ct6" class="animable"></path><path d="M221,355l-.17-.08c-.12.13-.27.31.17.39S220.82,355.09,221,355Z" style="fill: rgb(230, 230, 230); transform-origin: 220.933px 355.122px;" id="el6gvkk8p8nsm" class="animable"></path><path d="M221.56,355l-.18,0c-.07.17-.17.37.27.33S221.43,355.16,221.56,355Z" style="fill: rgb(230, 230, 230); transform-origin: 221.561px 355.168px;" id="elhw9ruhsl0pt" class="animable"></path><path d="M327.56,329.18h-.3a.53.53,0,0,1-.5-.52,7.82,7.82,0,0,1,.08-2.72.49.49,0,0,1-.07-.36.42.42,0,0,1,.56-.37.61.61,0,0,1,.37.71c.2.33.53.44.43,2.62A.63.63,0,0,1,327.56,329.18Z" style="fill: rgb(230, 230, 230); transform-origin: 327.413px 327.183px;" id="el568e43tfrsi" class="animable"></path><path d="M327.05,325.23c-.13.06-.44-.2-.54-.19s.29.36.26.55C327,325.61,327.05,325.23,327.05,325.23Z" style="fill: rgb(230, 230, 230); transform-origin: 326.772px 325.315px;" id="el9bu3irlknn" class="animable"></path><path d="M327.92,326.25c.2.24.79,1.4.53,1.46-.1,0-.29-.36-.54-.45S327.83,326.14,327.92,326.25Z" style="fill: rgb(230, 230, 230); transform-origin: 328.147px 326.976px;" id="elbany2rlqg8" class="animable"></path><path d="M326.78,326.36c-.17.29-.6,1.48-.34,1.48s.23-.43.48-.57S326.85,326.24,326.78,326.36Z" style="fill: rgb(230, 230, 230); transform-origin: 326.686px 327.094px;" id="elmaz1u7n3469" class="animable"></path><path d="M327.6,329.13l.16-.06c.08.15.2.34-.2.37S327.73,329.24,327.6,329.13Z" style="fill: rgb(230, 230, 230); transform-origin: 327.628px 329.256px;" id="elys51j7ozr4" class="animable"></path><path d="M327.08,329.1h.17c0,.17.1.39-.28.3S327.18,329.25,327.08,329.1Z" style="fill: rgb(230, 230, 230); transform-origin: 327.051px 329.26px;" id="elfqnq3tw204" class="animable"></path><path d="M167.76,121.89l-9.7-4.83a5.89,5.89,0,0,0-3.91-10.28h-.24a11.44,11.44,0,0,0-10.52-11.08,18.08,18.08,0,0,0-30.86-7.43A16.64,16.64,0,0,0,86.46,99.4,9.64,9.64,0,0,0,83.7,99a9.77,9.77,0,0,0-7.11,16.48l-9.83,6.41Z" style="fill: rgb(240, 240, 240); transform-origin: 117.26px 102.107px;" id="el99pnkeuikyh" class="animable"></path><path d="M112.86,190.08l5.29-2.63a3.21,3.21,0,0,1,2.13-5.61h.13a6.24,6.24,0,0,1,5.74-6A9.86,9.86,0,0,1,143,171.75a9.07,9.07,0,0,1,14.22,6.06,5.41,5.41,0,0,1,1.51-.22,5.34,5.34,0,0,1,3.88,9l5.36,3.49Z" style="fill: rgb(250, 250, 250); transform-origin: 140.415px 179.289px;" id="elpfva9tkc3ed" class="animable"></path><path d="M379,100.22l-4.41-2.87a3.9,3.9,0,0,0-2.72-6.54,9.81,9.81,0,0,0,.07-1.09A8.93,8.93,0,0,0,363,80.79a8.84,8.84,0,0,0-1.79.18,10.64,10.64,0,0,0-18.66,6.94,5.39,5.39,0,0,0-4.66,5.2h-.11A2.76,2.76,0,0,0,336,97.94l-4.58,2.28Z" style="fill: rgb(245, 245, 245); transform-origin: 355.21px 88.771px;" id="elqrr8eq78608" class="animable"></path></g><g id="freepik--Shadow--inject-129" class="animable" style="transform-origin: 250px 416.24px;"><ellipse id="freepik--path--inject-129" cx="250" cy="416.24" rx="193.89" ry="11.32" style="fill: rgb(245, 245, 245); transform-origin: 250px 416.24px;" class="animable"></ellipse></g><g id="freepik--Penguin-1--inject-129" class="animable" style="transform-origin: 158.584px 288.758px;"><path d="M209.42,239.65C213.3,261.9,233,314.84,224,348.59S203.75,294.65,192.35,288,209.42,239.65,209.42,239.65Z" style="fill: rgb(38, 50, 56); transform-origin: 207.993px 297.971px;" id="elb7byez4n19m" class="animable"></path><path d="M219.49,356.91c-4.23,0-8-12.33-13.65-32.63-4.34-15.5-9.24-33.07-13.8-35.71a5.84,5.84,0,0,1-2.75-4c-2.78-12.24,18.7-44,19.62-45.3l.86-1.26.26,1.5c1,5.48,2.88,12.84,5.1,21.35,6.85,26.29,16.25,62.3,9.44,87.86-1.47,5.56-3.09,8.15-5.07,8.16Zm-10.4-115.64c-4,6.12-21,32.67-18.59,43.06a4.64,4.64,0,0,0,2.16,3.17c5,2.9,9.55,19.19,14.37,36.45,4.15,14.87,8.86,31.72,12.46,31.72h0c.73,0,2.21-.95,3.89-7.24,6.71-25.24-2.63-61.07-9.45-87.22C211.9,253.42,210.12,246.6,209.09,241.27Z" style="fill: rgb(38, 50, 56); transform-origin: 207.987px 297.46px;" id="eltixry9sul9l" class="animable"></path><path d="M210.45,241.29c4.34,72.19-6.69,160.49-12,171.59-2.42,5-13.22.56-17.69-.93-11.16,1.68-36.29,3.82-57.7,3.82-23.83,0-35.63-.57-33.51-1.87s19.2-6.6,19.36-12.75c.56-22-7.4-41.31-8.28-90.19-.84-46.21,13.4-75.67,22.89-91.58,12-20.19,22.41-26.9,32.23-40.45S182,149.5,195.37,156.76c12.2,6.62,20.23-1.78,31.51.86a1.28,1.28,0,0,1,.24,2.41c-10,4.62-25.34,15.5-29.05,25.59C205.08,192.6,209,217.18,210.45,241.29Z" style="fill: rgb(255, 255, 255); transform-origin: 158.587px 285.354px;" id="elyyh9mvxyv0e" class="animable"></path><path d="M123,416.19c-33.63,0-34-1.16-34.15-1.85-.05-.17-.06-.5.42-.8a31.09,31.09,0,0,1,3.12-1.36c5.17-2.1,15.93-6.47,16-11,.24-9.53-1.11-18.48-2.82-29.81A415.59,415.59,0,0,1,100.17,311c-.63-34.82,6.88-64.85,23-91.81,7.38-12.36,14-19.6,20.5-26.6a147.08,147.08,0,0,0,11.75-13.88c5.39-7.42,24.2-31,40.2-22.29,6.89,3.74,12.31,2.62,18.05,1.43,4.17-.86,8.48-1.75,13.36-.61a1.7,1.7,0,0,1,.32,3.2c-9.67,4.45-24.9,15.15-28.75,25.11,8.63,9,11.49,41.94,12.32,55.75,4.28,71.18-6.63,160.46-12.08,171.79-2.34,4.85-11.28,1.71-16.63-.17l-1.47-.51A465.8,465.8,0,0,1,123,416.19Zm-33.14-2c1.47.57,8.71,1.18,33.14,1.18,22.23,0,47.09-2.23,57.64-3.81l.1,0,.1,0,1.58.55c4.75,1.67,13.58,4.77,15.59.6,5.43-11.28,16.27-100.32,12-171.38-1.73-28.78-6.31-49.49-12.26-55.4l-.19-.19.09-.25c3.78-10.26,19.39-21.28,29.28-25.83a.84.84,0,0,0,.49-.87.83.83,0,0,0-.66-.75c-4.69-1.1-8.91-.23-13,.61-5.63,1.17-11.46,2.37-18.62-1.51-15.4-8.37-33.84,14.76-39.12,22.05a151.65,151.65,0,0,1-11.81,13.95c-6.43,7-13.07,14.17-20.4,26.46-16,26.82-23.46,56.7-22.84,91.37a416.06,416.06,0,0,0,5.45,60.25c1.72,11.37,3.08,20.35,2.84,30-.13,5.12-10.82,9.46-16.56,11.79C91.44,413.48,90.39,413.9,89.88,414.17Zm-.23.15Z" style="fill: rgb(38, 50, 56); transform-origin: 158.584px 285.353px;" id="el9u20f26b02b" class="animable"></path><g id="elvy2udkcsdb"><path d="M198.07,185.62c7,7,10.93,31.56,12.38,55.67,0,0-3.34,11-35.87,7.13s-37.8-26.11-37.8-26.11,3.63-22.93,61.29-36.69" style="fill: rgb(38, 50, 56); opacity: 0.1; transform-origin: 173.615px 217.433px;" class="animable"></path></g><g id="ellq635yz0yk"><path d="M177.31,260.79c12.58-7.75,28.36-6.08,27.45,3.71S161,270.84,177.31,260.79Z" style="fill: rgb(38, 50, 56); opacity: 0.1; transform-origin: 189.204px 263.118px;" class="animable"></path></g><path d="M123,415.77c-23.83,0-35.63-.57-33.51-1.87s19.2-6.6,19.36-12.75c.56-22-7.4-41.31-8.28-90.19-.84-46.21,13.4-75.67,22.89-91.58,12-20.19,22.41-26.9,32.23-40.45S182,149.5,195.37,156.76c12.2,6.62,20.23-1.78,31.51.86a1.28,1.28,0,0,1,.24,2.41c-10,4.62-25.34,15.5-29.05,25.59,0,0,4.6,10.21-18.55,11-16.31.52-29.12,8.58-37,22.89a29.81,29.81,0,0,0-3.34,9.68c-6.37,39.79-32.95,42.44-31.08,80.23s16.75,82,10.61,94.19S123,415.77,123,415.77Z" style="fill: rgb(38, 50, 56); transform-origin: 158.557px 285.354px;" id="el6g57ec8t0z3" class="animable"></path><path d="M123,416.19c-33.63,0-34-1.16-34.15-1.85-.05-.17-.06-.5.42-.8a31.09,31.09,0,0,1,3.12-1.36c5.17-2.1,15.93-6.47,16-11,.24-9.53-1.11-18.48-2.82-29.81A415.59,415.59,0,0,1,100.17,311c-.63-34.82,6.88-64.85,23-91.81,7.38-12.36,14-19.6,20.5-26.6a147.08,147.08,0,0,0,11.75-13.88c5.39-7.42,24.2-31,40.2-22.29,6.89,3.74,12.31,2.62,18.05,1.43,4.17-.86,8.48-1.75,13.36-.61a1.7,1.7,0,0,1,.32,3.2c-9.71,4.47-25,15.22-28.79,25.21a6,6,0,0,1-.6,5.29c-2.32,3.72-8.5,5.77-18.37,6.08-16.11.52-28.77,8.36-36.63,22.69a29.54,29.54,0,0,0-3.28,9.54c-3,18.62-10.54,29.39-17.21,38.89-7.64,10.9-14.86,21.2-13.88,41.25.82,16.61,4.17,34.51,7.13,50.31,3.88,20.77,6.94,37.16,3.44,44.09-2,4-2.43,7.06-1.21,9.06,1.51,2.48,5.08,2.53,5.12,2.53Zm-33.14-2c1.4.54,8,1.12,29.65,1.17a5.54,5.54,0,0,1-2.34-2.07c-1.39-2.28-1-5.6,1.17-9.89,3.38-6.67.18-23.76-3.52-43.55-3-15.83-6.31-33.77-7.13-50.43-1-20.34,6.3-30.75,14-41.77,6.93-9.89,14.11-20.12,17.06-38.55a30.26,30.26,0,0,1,3.38-9.81c8-14.59,20.91-22.59,37.33-23.11,11.91-.39,16.19-3.3,17.68-5.68a5.2,5.2,0,0,0,.49-4.69l-.07-.15.06-.16c3.78-10.26,19.39-21.28,29.28-25.83a.84.84,0,0,0,.49-.87.83.83,0,0,0-.66-.75c-4.69-1.1-8.91-.23-13,.61-5.63,1.17-11.46,2.37-18.62-1.51-15.4-8.37-33.84,14.76-39.12,22.05a151.65,151.65,0,0,1-11.81,13.95c-6.43,7-13.07,14.17-20.4,26.46-16,26.82-23.46,56.7-22.84,91.37a416.06,416.06,0,0,0,5.45,60.25c1.72,11.37,3.08,20.35,2.84,30-.13,5.12-10.82,9.46-16.56,11.79C91.44,413.48,90.39,413.9,89.88,414.17Z" style="fill: rgb(38, 50, 56); transform-origin: 158.584px 285.353px;" id="el7t9ou8cmr3k" class="animable"></path><path d="M200.42,404.88c4.34,3.47,19.06,5.23,25.24,10.15.59.47.2,1.31-.6,1.29l-29.82-.51a39,39,0,0,1-14.56-3.5S190.88,397.26,200.42,404.88Z" style="fill: rgb(38, 50, 56); transform-origin: 203.312px 409.523px;" id="eljh6jzqwon7" class="animable"></path><path d="M225.08,416.74h0l-29.82-.51a39.6,39.6,0,0,1-14.73-3.55l-.43-.21.27-.4c.24-.35,5.9-8.59,12.87-9.65a9.31,9.31,0,0,1,7.47,2.14h0c1.92,1.53,6.08,2.76,10.49,4.06,5.31,1.58,11.33,3.36,14.75,6.08a1.08,1.08,0,0,1,.38,1.24A1.27,1.27,0,0,1,225.08,416.74Zm-43.76-4.6a38.76,38.76,0,0,0,13.93,3.25l29.82.51a.44.44,0,0,0,.44-.24.25.25,0,0,0-.11-.3c-3.29-2.62-9.23-4.38-14.47-5.93-4.49-1.33-8.73-2.59-10.77-4.22h0a8.55,8.55,0,0,0-6.82-2C187.57,404.12,182.56,410.46,181.32,412.14Z" style="fill: rgb(38, 50, 56); transform-origin: 203.247px 409.528px;" id="el1fcaj2uuhbc" class="animable"></path><path d="M163.71,413.92c-8.67-4.39-11.27-10.6-18-8.16s-7.39,6.84-8.37,9.84,5.3,5.24,8.93,5.52,5.86-1.54,14.38.84S175.07,419.67,163.71,413.92Z" style="fill: rgb(38, 50, 56); transform-origin: 153.616px 413.902px;" id="elxz2sw9c5m2h" class="animable"></path><path d="M165,423a16.69,16.69,0,0,1-4.45-.65c-5.76-1.61-8.53-1.28-11-1a16.5,16.5,0,0,1-3.32.17c-2.71-.21-7.43-1.58-9-3.84a2.47,2.47,0,0,1-.35-2.23c.1-.3.19-.62.29-1,.87-2.91,2.07-6.89,8.34-9.15,4.58-1.66,7.43.54,11,3.33a44.4,44.4,0,0,0,7.32,4.85c4.84,2.45,7.16,5.06,6.34,7.15C169.66,422.19,167.63,423,165,423Zm-12.17-2.71a29.19,29.19,0,0,1,7.94,1.25c4.62,1.29,8.13.4,8.73-1.15.49-1.25-.82-3.51-5.94-6.11h0a43.88,43.88,0,0,1-7.45-4.93c-3.67-2.83-6.1-4.7-10.25-3.21-5.87,2.13-6.95,5.72-7.82,8.61-.1.34-.19.66-.3,1a1.65,1.65,0,0,0,.26,1.5c1.3,1.95,5.66,3.27,8.31,3.47a15.36,15.36,0,0,0,3.17-.16A27.77,27.77,0,0,1,152.79,420.3Z" style="fill: rgb(38, 50, 56); transform-origin: 153.544px 413.863px;" id="el19craah833q" class="animable"></path><path d="M168.17,195.68c14-4.46-8-20.36-19.33-6.35-10.19,12.59-3.17,17.66,3.81,13.82S164.53,196.84,168.17,195.68Z" style="fill: rgb(15, 133, 235); transform-origin: 158.203px 194.042px;" id="elvbgoocrn5xq" class="animable"></path><path d="M223.2,159.93c6.43-1.52-26,16-33.9,14.5C200.18,171.35,212.17,164.84,223.2,159.93Z" style="fill: rgb(15, 133, 235); transform-origin: 206.669px 167.179px;" id="elvdtd39x405o" class="animable"></path><path d="M180.41,170a1.5,1.5,0,1,0,.69-2A1.5,1.5,0,0,0,180.41,170Z" style="fill: rgb(15, 133, 235); transform-origin: 181.76px 169.347px;" id="elqzsiufdeoi" class="animable"></path><path d="M181.29,169a.5.5,0,0,1-.16-1,2.11,2.11,0,0,0,1.35-1.8.5.5,0,1,1,1,.08,3.1,3.1,0,0,1-2,2.67Z" style="fill: rgb(15, 133, 235); transform-origin: 182.093px 167.372px;" id="el3998w38g3q3" class="animable"></path><path d="M135.47,240.78c-3.51,22.32,8.68,78.31-6.61,109.71s-9.51-56.81-19.42-65.49S135.47,240.78,135.47,240.78Z" style="fill: rgb(38, 50, 56); transform-origin: 122.248px 298.999px;" id="elo8uggtwmst" class="animable"></path><path d="M123.28,357.84a1.84,1.84,0,0,1-.41,0c-4.16-.78-5.48-13.61-7.15-34.64-1.28-16.05-2.73-34.23-6.69-37.7a5.84,5.84,0,0,1-1.94-4.42c-.38-12.55,26.79-39.55,27.94-40.7l1.34-1.32-.29,1.86c-1.2,7.65-.55,19.26.21,32.7,1.42,25.17,3.19,56.5-6.88,77.18C127.07,355.57,125.11,357.84,123.28,357.84Zm11.33-115.3c-5.51,5.64-26.6,28-26.28,38.46a4.59,4.59,0,0,0,1.51,3.53c4.34,3.8,5.69,20.67,7.11,38.53,1.23,15.4,2.62,32.86,6.15,33.53.72.13,2.35-.52,5.2-6.37,9.93-20.39,8.17-51.54,6.75-76.57C134.35,261.17,133.73,250.26,134.61,242.54Z" style="fill: rgb(38, 50, 56); transform-origin: 122.239px 298.456px;" id="elag9hl06pgck" class="animable"></path></g><g id="freepik--Penguin-2--inject-129" class="animable" style="transform-origin: 334.768px 268.809px;"><path d="M283.1,204.2c-2,26.89-19.07,92.1-4.42,131.13s17.66-66.46,30.42-75.67S283.1,204.2,283.1,204.2Z" style="fill: rgb(38, 50, 56); transform-origin: 292.236px 274.08px;" id="el3stmlga278" class="animable"></path><path d="M284.74,344.7c-2.27,0-4.42-2.91-6.75-9.11-11.1-29.56-4.19-73.44.84-105.48,1.64-10.38,3.05-19.34,3.53-26l.14-1.82,1.17,1.4c1.25,1.49,30.51,36.62,28.66,51.49a7,7,0,0,1-2.8,5c-5.1,3.68-8.85,25.13-12.17,44.05C293,329.12,290,344.22,285,344.69Zm-1.05-138.62c-.59,6.46-1.9,14.77-3.39,24.26-5,31.88-11.88,75.54-.92,104.73,2.73,7.28,4.6,8.23,5.47,8.15,4.27-.4,7.87-21,11-39.16,3.69-21.07,7.18-41,12.76-45a5.51,5.51,0,0,0,2.2-4C312.43,242.42,289.2,212.88,283.69,206.08Z" style="fill: rgb(38, 50, 56); transform-origin: 292.227px 273.495px;" id="elsuhahxxuauh" class="animable"></path><path d="M281.88,206.16c-5.18,86.17,8,191.58,14.37,204.84,2.89,6,15.78.67,21.11-1.11,13.34,2,43.33,4.55,68.89,4.55,28.45,0,42.54-.67,40-2.22s-22.92-7.89-23.11-15.22c-.67-26.22,8.83-49.32,9.89-107.67C414,234.17,397,199,385.7,180c-14.38-24.1-37-44.67-54.67-54s-43.67-17.67-54.17-2.83c-9.57,13.52-22.6,8.76-33.29,17.53a1.53,1.53,0,0,0,1,2.71c13.2-.34,35.32,3.24,44.62,12.09C285.36,166.67,283.61,177.37,281.88,206.16Z" style="fill: rgb(255, 255, 255); transform-origin: 334.778px 264.754px;" id="elfzyx1jfu5v" class="animable"></path><path d="M386.25,414.94c-26.51,0-56.15-2.65-68.84-4.54l-1.76.61c-6.38,2.24-17.07,6-19.85.21-6.51-13.53-19.53-120.11-14.42-205.09l.5,0-.5,0c1.64-27.4,3.28-38.83,7.24-50.49-9.38-8.63-31.32-12.06-44-11.73a2,2,0,0,1-1.34-3.6c4.62-3.79,9.71-5.11,14.62-6.38,6.78-1.76,13.18-3.42,18.58-11.05,12.56-17.75,45.13-2.44,54.81,2.68,16.38,8.65,39.7,28.76,54.86,54.18,19.2,32.18,28.16,68,27.41,109.6-.6,33-3.88,54.64-6.52,72.06-2,13.52-3.66,24.21-3.37,35.59.14,5.45,13,10.66,19.14,13.17a34.41,34.41,0,0,1,3.73,1.63c.58.35.56.75.51.95C426.78,413.57,426.4,414.94,386.25,414.94Zm-68.93-5.56h.12c12.59,1.89,42.27,4.55,68.81,4.55,29.16,0,37.81-.73,39.56-1.4-.61-.32-1.86-.83-3.4-1.46-6.86-2.78-19.61-8-19.77-14.07-.29-11.47,1.33-22.19,3.38-35.76,2.64-17.39,5.91-39,6.51-71.93.75-41.37-8.17-77-27.26-109.06C370.2,155,347.05,135,330.8,126.44c-9.5-5-41.44-20.06-53.53-3-5.61,7.93-12.49,9.71-19.14,11.44-4.82,1.24-9.79,2.53-14.24,6.19a1,1,0,0,0-.31,1.15,1,1,0,0,0,1,.67c13-.34,35.52,3.23,45,12.23l.23.22-.1.3c-4,11.66-5.64,23-7.3,50.53-5.1,84.83,7.85,191.13,14.33,204.59,2.4,5,12.95,1.28,18.62-.71l1.88-.66Zm108.77,3.33Z" style="fill: rgb(38, 50, 56); transform-origin: 334.773px 264.739px;" id="elhxc82awx0qt" class="animable"></path><g id="el097cnzah1i14"><path d="M289.2,155.5c-3.84,11.17-5.59,21.87-7.32,50.66,0,0,4,13.17,42.82,8.51s45.12-31.17,45.12-31.17-11.62-43.67-80.62-28" style="fill: rgb(38, 50, 56); opacity: 0.1; transform-origin: 325.85px 183.887px;" class="animable"></path></g><path d="M386.25,414.44c28.45,0,42.54-.67,40-2.22s-22.92-7.89-23.11-15.22c-.67-26.22,8.83-49.32,9.89-107.67C414,234.17,397,199,385.7,180c-14.38-24.1-37-44.67-54.67-54s-43.67-17.67-54.17-2.83c-9.57,13.52-22.6,8.76-33.29,17.53a1.53,1.53,0,0,0,1,2.71c13.2-.34,35.32,3.24,44.62,12.09,0,0,6.6,5.15,25.63,1.95,19.22-3.23,38.74,5.58,48.11,22.67a35.89,35.89,0,0,1,4,11.55c7.61,47.5,39.33,50.66,37.11,95.77s-20,97.95-12.67,112.45S386.25,414.44,386.25,414.44Z" style="fill: rgb(38, 50, 56); transform-origin: 334.778px 264.754px;" id="elo86a8w81n6k" class="animable"></path><path d="M386.25,414.94h0v-1s4.31-.06,6.11-3c1.46-2.39,1-6-1.44-10.82-4.19-8.27-.53-27.84,4.11-52.63,3.52-18.86,7.52-40.24,8.5-60.06,1.18-23.94-7.44-36.23-16.57-49.24-8-11.35-17-24.2-20.54-46.43a35,35,0,0,0-3.92-11.39c-9.14-16.66-28.26-25.66-47.59-22.41-19,3.2-25.75-1.84-26-2.06-9.28-8.82-31.49-12.31-44.3-12a2,2,0,0,1-1.34-3.6c4.62-3.79,9.71-5.11,14.62-6.38,6.78-1.76,13.18-3.42,18.58-11.05,12.56-17.75,45.13-2.44,54.81,2.68,16.38,8.65,39.7,28.76,54.86,54.18,19.2,32.18,28.16,68,27.41,109.6-.6,33-3.88,54.64-6.52,72.06-2,13.52-3.66,24.21-3.37,35.59.14,5.45,13,10.66,19.14,13.17a34.41,34.41,0,0,1,3.73,1.63c.58.35.56.75.51.95-.24.83-.62,2.2-40.77,2.2ZM322.77,156.29a46.11,46.11,0,0,1,40.61,23.59,36.21,36.21,0,0,1,4,11.71c3.53,22,12.09,34.21,20.37,46,9.23,13.16,17.94,25.59,16.75,49.87-1,19.89-5,41.3-8.52,60.2-4.42,23.62-8.23,44-4.2,52,2.59,5.12,3.06,9.09,1.4,11.8a6.67,6.67,0,0,1-2.8,2.48c25.83-.07,33.73-.76,35.4-1.4-.61-.32-1.86-.83-3.4-1.46-6.86-2.78-19.61-8-19.77-14.07-.29-11.47,1.33-22.19,3.38-35.76,2.64-17.39,5.91-39,6.51-71.93.75-41.37-8.17-77-27.26-109.06C370.2,155,347.05,135,330.8,126.44c-9.5-5-41.44-20.06-53.53-3-5.61,7.93-12.49,9.71-19.14,11.44-4.82,1.24-9.79,2.53-14.24,6.19a1,1,0,0,0-.31,1.15,1,1,0,0,0,1,.67c13-.34,35.52,3.23,45,12.23,0,0,6.69,4.94,25.21,1.82A48.5,48.5,0,0,1,322.77,156.29ZM426.09,412.71Z" style="fill: rgb(38, 50, 56); transform-origin: 334.763px 264.734px;" id="elgjx31gnyjzd" class="animable"></path><path d="M293.85,401.45c-5.18,4.14-22.76,6.24-30.13,12.12-.71.56-.24,1.55.72,1.54L300,414.5a46.54,46.54,0,0,0,17.38-4.19S305.23,392.35,293.85,401.45Z" style="fill: rgb(38, 50, 56); transform-origin: 290.379px 406.993px;" id="elef0r7tnu52h" class="animable"></path><path d="M264.41,415.61a1.5,1.5,0,0,1-1.45-1,1.27,1.27,0,0,1,.45-1.47c4.08-3.26,11.27-5.38,17.6-7.26,5.27-1.56,10.24-3,12.53-4.86a11.16,11.16,0,0,1,8.91-2.55c8.33,1.26,15.09,11.1,15.37,11.52l.33.48-.52.25A47.52,47.52,0,0,1,300,415l-35.6.61Zm29.44-14.16.31.39c-2.44,2-7.5,3.45-12.86,5C275.05,408.73,268,410.83,264,414a.32.32,0,0,0-.13.36.52.52,0,0,0,.53.29L300,414a46,46,0,0,0,16.63-3.89c-1.48-2-7.47-9.57-14.35-10.61a10.23,10.23,0,0,0-8.14,2.34Z" style="fill: rgb(38, 50, 56); transform-origin: 290.516px 406.978px;" id="el1e6mrym4j04" class="animable"></path><path d="M337.67,412.24C348,407,351.13,399.59,359.2,402.5s8.82,8.16,10,11.75-6.33,6.25-10.66,6.58-7-1.83-17.17,1S324.12,419.1,337.67,412.24Z" style="fill: rgb(38, 50, 56); transform-origin: 349.756px 412.214px;" id="elwtxrkrsr9wn" class="animable"></path><path d="M336.19,423.09c-3.19,0-5.62-1-6.32-2.76-1-2.5,1.79-5.61,7.58-8.54a52.5,52.5,0,0,0,8.74-5.78c4.31-3.33,7.71-6,13.18-4,7.48,2.7,8.91,7.46,9.95,10.93.12.39.23.77.35,1.13a3,3,0,0,1-.43,2.66c-1.81,2.7-7.44,4.33-10.67,4.58a20,20,0,0,1-4-.19c-2.92-.35-6.23-.74-13.1,1.17A19.84,19.84,0,0,1,336.19,423.09Zm19.54-20.75c-3.15,0-5.62,1.9-8.93,4.46a53.58,53.58,0,0,1-8.9,5.89c-6.11,3.09-7.67,5.79-7.09,7.28.72,1.86,4.91,2.92,10.42,1.38,7.07-2,10.62-1.55,13.48-1.21a17.82,17.82,0,0,0,3.78.19c3.16-.24,8.37-1.81,9.92-4.14a2,2,0,0,0,.31-1.79c-.12-.37-.24-.75-.36-1.15-1-3.45-2.32-7.75-9.33-10.28A9.81,9.81,0,0,0,355.73,402.34Z" style="fill: rgb(38, 50, 56); transform-origin: 349.74px 412.206px;" id="elku50e2oictd" class="animable"></path><path d="M327,153c-8.44,4.72,1.59-29.46,18.33-15.94,15.05,12.16,10.71,20.63,1.25,19.64S331,150.74,327,153Z" style="fill: rgb(15, 133, 235); transform-origin: 339.566px 145.326px;" id="els5908kuwsve" class="animable"></path><path d="M245.61,141.14c-7.73,1.56,36.21,4.37,44-1.17C276.28,142.06,260,141,245.61,141.14Z" style="fill: rgb(15, 133, 235); transform-origin: 267.156px 141.611px;" id="el00zdiawah4op" class="animable"></path><path d="M299.86,129.46a1.79,1.79,0,1,1-1.79-1.79A1.79,1.79,0,0,1,299.86,129.46Z" style="fill: rgb(15, 133, 235); transform-origin: 298.07px 129.46px;" id="elq2b38n3fudp" class="animable"></path><path d="M371.39,205.56c4.19,26.63-10.36,93.47,7.89,131s11.35-67.82,23.19-78.18S371.39,205.56,371.39,205.56Z" style="fill: rgb(38, 50, 56); transform-origin: 387.179px 275.083px;" id="eli8n7vpswurq" class="animable"></path><path d="M385.94,345.3c-2.19,0-4.53-2.71-7.32-8.45-12-24.7-9.91-62.09-8.21-92.14.9-16,1.69-29.9.25-39l-.35-2.22,1.6,1.58c1.38,1.36,33.81,33.6,33.36,48.58a7,7,0,0,1-2.32,5.28c-4.73,4.14-6.46,25.85-8,45-2,25.11-3.57,40.42-8.54,41.36A2.72,2.72,0,0,1,385.94,345.3ZM372.42,207.65c1,9.22.3,22.25-.54,37.15-1.69,29.87-3.79,67.05,8.07,91.4,3.4,7,5.35,7.76,6.2,7.6,4.22-.8,5.88-21.64,7.34-40,1.7-21.32,3.31-41.46,8.49-46a5.51,5.51,0,0,0,1.81-4.21C404.17,241,379,214.38,372.42,207.65Z" style="fill: rgb(38, 50, 56); transform-origin: 387.185px 274.398px;" id="elnemqf7bee0o" class="animable"></path></g><g id="freepik--Penguin-3--inject-129" class="animable" style="transform-origin: 261.876px 348.386px;"><path d="M279,310.75c-8.71-1.05-33.07-11.6-45.2-6.56s5.6,8,11.48,13.37c8.16,7.42,21.7,13.71,21.7,13.71" style="fill: rgb(255, 255, 255); transform-origin: 254.324px 317.052px;" id="elmvwrmxuibwk" class="animable"></path><path d="M266.79,331.72c-.14-.06-13.71-6.4-21.82-13.79-1.89-1.72-5.05-3.19-8.1-4.62-4.16-1.94-7.75-3.61-7.7-5.77,0-1.35,1.44-2.57,4.46-3.82,8.74-3.62,23.66.68,34.55,3.82a85.75,85.75,0,0,0,10.9,2.71l-.12,1a84.92,84.92,0,0,1-11-2.75c-10.75-3.1-25.48-7.34-33.9-3.85-3.15,1.31-3.83,2.3-3.84,2.91,0,1.51,3.6,3.21,7.12,4.85,3.12,1.45,6.35,2.95,8.35,4.78,8,7.28,21.44,13.56,21.57,13.62Z" style="fill: rgb(38, 50, 56); transform-origin: 254.125px 317.031px;" id="elnw18gzjzv3s" class="animable"></path><path d="M225.68,422.11c-20-.44-22-30.44-9.11-51.33S255.3,304.67,257.3,296s5.42-21.37,19.5-23.83c17.16-3,28.69,9.25,27.5,24.83-.67,8.67-3.67,9.83-2.84,16.67s-.21,19.82-2.66,28.66c-5.5,19.84,10.5,57.17-1.17,79.78C264.3,422.11,238.24,422.39,225.68,422.11Z" style="fill: rgb(255, 255, 255); transform-origin: 256.411px 346.975px;" id="el6cuq5gl51hj" class="animable"></path><path d="M242.54,422.73c-7,0-12.68,0-16.87-.12a16.07,16.07,0,0,1-14.41-8.88c-5.91-10.87-3.86-29,4.89-43.21,12.85-20.84,38.69-66.12,40.66-74.63,1.74-7.55,5-21.61,19.9-24.22,8.07-1.41,15.43.46,20.71,5.26s8,12.14,7.37,20.11a32,32,0,0,1-1.81,8.57,15.69,15.69,0,0,0-1,8c.88,7.22-.35,20.44-2.68,28.86s-.76,20,.9,32.27c2.29,17,4.65,34.5-2.11,47.6l-.14.27h-.3c-12.41,0-23.81,0-33.87.07C255.84,422.71,248.7,422.73,242.54,422.73Zm39.32-150.51a28.68,28.68,0,0,0-5,.44c-14.26,2.49-17.41,16.13-19.1,23.45-2,8.75-27.55,53.49-40.78,74.93-8.43,13.66-10.52,31.81-4.86,42.21a15.12,15.12,0,0,0,13.56,8.36c7.87.18,21.19.13,38.05.07,10,0,21.28-.07,33.57-.07,6.44-12.79,4.12-30,1.87-46.74-1.67-12.39-3.25-24.1-.88-32.67,2.31-8.31,3.52-21.35,2.66-28.47a16.77,16.77,0,0,1,1.06-8.44A31.07,31.07,0,0,0,303.8,297c.59-7.66-2-14.69-7.05-19.29A21.72,21.72,0,0,0,281.86,272.22Z" style="fill: rgb(38, 50, 56); transform-origin: 256.391px 346.971px;" id="ely4den0m7zmi" class="animable"></path><g id="eliwk52a5xuo8"><path d="M304.3,297c-.67,8.67-3.67,9.83-2.84,16.67s-.21,19.82-2.66,28.66c-5.5,19.84,10.5,57.17-1.17,79.78-33.33,0-59.39.28-71.95,0-5.38-11.78,34.12-16.94,32.45-42.44s27.9-37.34,19.62-56.17-13.05-36.33,0-40.67,25.55,3.5,26.55,14.17" style="fill: rgb(38, 50, 56); opacity: 0.1; transform-origin: 264.738px 351.923px;" class="animable"></path></g><path d="M256.28,415.14c-7.17-1.67-10.21-5.77-14.74-2.75s-7.46,7.44-7.63,9.82,8.1,1.83,10.82,1.38,4-2.19,10.73-2S265.68,417.31,256.28,415.14Z" style="fill: rgb(38, 50, 56); transform-origin: 247.966px 417.648px;" id="elcu6cevkras4" class="animable"></path><path d="M239.33,424.49c-2.24,0-4.48-.25-5.42-1.11a1.43,1.43,0,0,1-.5-1.2c.19-2.58,3.18-7.1,7.85-10.21,3.16-2.1,5.69-1,8.9.45a34,34,0,0,0,6.23,2.23c5.63,1.3,6.24,3.26,6.1,4.32-.24,1.9-3.27,3.25-7.05,3.14a18.28,18.28,0,0,0-8.18,1.24,12.67,12.67,0,0,1-2.45.73A37.61,37.61,0,0,1,239.33,424.49Zm5.5-12.68a5.27,5.27,0,0,0-3,1c-4.36,2.9-7.24,7.16-7.41,9.44a.41.41,0,0,0,.18.39c1.28,1.18,7.23.92,10.06.46a11.74,11.74,0,0,0,2.26-.69,19.46,19.46,0,0,1,8.57-1.3c3.41.11,5.87-1.09,6-2.27.12-.93-1.21-2.26-5.33-3.22h0a34.35,34.35,0,0,1-6.41-2.29A12.85,12.85,0,0,0,244.83,411.81Z" style="fill: rgb(38, 50, 56); transform-origin: 247.956px 417.647px;" id="elognx6hu1ry" class="animable"></path><path d="M306.81,418.26c-6.89-2.63-9.33-7.1-14.23-4.73s-8.4,6.34-8.91,8.68,7.78,2.92,10.53,2.85,4.3-1.62,10.91-.5S315.81,421.7,306.81,418.26Z" style="fill: rgb(38, 50, 56); transform-origin: 297.827px 418.962px;" id="eliwdfepoh50s" class="animable"></path><path d="M293.79,425.56c-2.27,0-8.74-.34-10.27-2.19a1.45,1.45,0,0,1-.34-1.26c.55-2.52,4.13-6.59,9.18-9,3.41-1.65,5.77-.19,8.76,1.65A33.29,33.29,0,0,0,307,417.8c5.4,2.06,5.74,4.08,5.46,5.11-.51,1.85-3.7,2.77-7.42,2.14a18.22,18.22,0,0,0-8.27.12,13.64,13.64,0,0,1-2.53.39Zm1.47-12.2a5.45,5.45,0,0,0-2.46.62c-4.72,2.28-8.16,6.1-8.64,8.34a.45.45,0,0,0,.13.41c1.11,1.34,7,1.9,9.9,1.83a11.87,11.87,0,0,0,2.34-.37,19.39,19.39,0,0,1,8.66-.12c3.37.57,6-.28,6.28-1.43.25-.9-.89-2.4-4.84-3.91a34.25,34.25,0,0,1-6-3.15C298.55,414.32,297,413.36,295.26,413.36Z" style="fill: rgb(38, 50, 56); transform-origin: 297.84px 418.975px;" id="elpl0azkj538" class="animable"></path><path d="M304.3,297c1.19-15.58-10.34-27.83-27.5-24.83-14.08,2.46-17.5,15.16-19.5,23.83-.06,5.11,1.5,9.44,8.38,11.78s10.12-3.89,5.89-7.89-3.77-16.11,4.67-20,21.73,3.79,18,14c-1.89,5.17-6,3.89-2.78,8.44s10.64,4.36,10.64,4.36,7.92-4.13,13-3C314,299.44,304.3,297,304.3,297Z" style="fill: rgb(38, 50, 56); transform-origin: 286.199px 290.003px;" id="el5boa6yueh9g" class="animable"></path><path d="M268.56,308.8a9.57,9.57,0,0,1-3-.55c-7.82-2.65-8.77-7.94-8.72-12.26v-.1c1.74-7.55,5-21.61,19.9-24.22,8.07-1.41,15.43.46,20.71,5.26s7.89,11.88,7.4,19.69c1.91.53,9.74,2.93,10.79,6.92l.21.79-.8-.17c-4.87-1.06-12.61,2.94-12.69,3l-.1.05h-.11c-.32,0-7.73.15-11.07-4.57-2.07-2.93-1.35-3.84.11-5.19a8.78,8.78,0,0,0,2.61-3.71A9.46,9.46,0,0,0,291,283.18c-4-3.68-10.11-4.88-14.54-2.84a12.35,12.35,0,0,0-6.79,9.5c-.64,3.91.27,7.8,2.26,9.69s2.64,4.72,1.37,6.83A5.32,5.32,0,0,1,268.56,308.8Zm-10.77-12.74c0,4.21.91,8.82,8,11.24,3.5,1.19,5.7,0,6.59-1.46,1-1.69.54-3.94-1.2-5.59-2.22-2.1-3.25-6.35-2.55-10.57A13.3,13.3,0,0,1,276,279.43c4.78-2.2,11.35-.93,15.63,3a10.39,10.39,0,0,1,3,11.61,9.68,9.68,0,0,1-2.87,4.1c-1.23,1.14-1.64,1.52,0,3.88,2.82,4,9.19,4.15,10.11,4.15,1-.48,7.46-3.68,12.35-3.16-1.92-3.43-10.07-5.52-10.16-5.55l-.41-.1,0-.42c.59-7.66-2-14.69-7.05-19.29s-12.11-6.37-19.87-5C262.65,275.15,259.49,288.72,257.79,296.06Z" style="fill: rgb(38, 50, 56); transform-origin: 286.344px 290.009px;" id="el1ixv11y2igq" class="animable"></path><path d="M283.4,291.81c.14,1.56-1.14,1.46-2.7,1.6s-2.81.45-2.94-1.11a2.83,2.83,0,1,1,5.64-.49Z" style="fill: rgb(38, 50, 56); transform-origin: 280.58px 291.376px;" id="eltxgg59bp0ur" class="animable"></path><path d="M279.18,293.86a1.82,1.82,0,0,1-1.22-.35,1.58,1.58,0,0,1-.53-1.18,3.07,3.07,0,0,1,.73-2.31,3.1,3.1,0,0,1,2.15-1.12,3.15,3.15,0,0,1,3.42,2.88,1.63,1.63,0,0,1-.31,1.26,3.14,3.14,0,0,1-2.21.66l-1,.09C279.87,293.82,279.51,293.86,279.18,293.86Zm1.41-4.31h-.23a2.5,2.5,0,0,0-2.27,2.71,1,1,0,0,0,.29.73,2.77,2.77,0,0,0,1.8.12l1-.08c.79-.06,1.48-.11,1.75-.43a1,1,0,0,0,.16-.77h0a2.5,2.5,0,0,0-2.48-2.29Z" style="fill: rgb(38, 50, 56); transform-origin: 280.584px 291.376px;" id="el75f89mtkot3" class="animable"></path><path d="M256.63,308.41c-8.38,2.58-34.92,2.83-44,12.36s8.37,5.05,15.92,7.55C239.05,331.8,254,332,254,332" style="fill: rgb(255, 255, 255); transform-origin: 233.352px 320.205px;" id="el55ps7vh0o9n" class="animable"></path><path d="M254,332.54c-.15,0-15.13-.29-25.54-3.74-2.43-.81-5.91-.87-9.27-.93-4.59-.08-8.55-.16-9.39-2.15-.52-1.25.28-2.93,2.53-5.3,6.52-6.86,21.9-9,33.13-10.55a85.55,85.55,0,0,0,11.05-1.93l.3.95a85.14,85.14,0,0,1-11.22,2c-11.08,1.53-26.26,3.63-32.54,10.24-2.35,2.48-2.56,3.67-2.33,4.23.59,1.39,4.6,1.46,8.49,1.53,3.43.06,7,.13,9.56,1,10.27,3.41,25.1,3.69,25.25,3.69Z" style="fill: rgb(38, 50, 56); transform-origin: 233.229px 320.24px;" id="el9muzvqaq5x4" class="animable"></path></g><defs>     <filter id="active" height="200%">         <feMorphology in="SourceAlpha" result="DILATED" operator="dilate" radius="2"></feMorphology>                <feFlood flood-color="#32DFEC" flood-opacity="1" result="PINK"></feFlood>        <feComposite in="PINK" in2="DILATED" operator="in" result="OUTLINE"></feComposite>        <feMerge>            <feMergeNode in="OUTLINE"></feMergeNode>            <feMergeNode in="SourceGraphic"></feMergeNode>        </feMerge>    </filter>    <filter id="hover" height="200%">        <feMorphology in="SourceAlpha" result="DILATED" operator="dilate" radius="2"></feMorphology>                <feFlood flood-color="#ff0000" flood-opacity="0.5" result="PINK"></feFlood>        <feComposite in="PINK" in2="DILATED" operator="in" result="OUTLINE"></feComposite>        <feMerge>            <feMergeNode in="OUTLINE"></feMergeNode>            <feMergeNode in="SourceGraphic"></feMergeNode>        </feMerge>            <feColorMatrix type="matrix" values="0   0   0   0   0                0   1   0   0   0                0   0   0   0   0                0   0   0   1   0 "></feColorMatrix>    </filter></defs></svg>